<?xml version="1.0" encoding="utf-8"?>
<!-- Generator: Adobe Illustrator 25.4.1, SVG Export Plug-In . SVG Version: 6.00 Build 0)  -->
<svg version="1.1" id="Layer_1" xmlns="http://www.w3.org/2000/svg" xmlns:xlink="http://www.w3.org/1999/xlink" x="0px" y="0px"
	 viewBox="0 0 576 360" style="enable-background:new 0 0 576 360;" xml:space="preserve">
<style type="text/css">
	.st0{fill:#FFFFFF;}
</style>
<g>
	<g>
		<path class="st0" d="M111.6,119.1c36.5,0,66,29,66,64.8s-29.6,64.8-66,64.8s-66-29-66-64.8S75.1,119.1,111.6,119.1z M55.9,183.8
			c0,30.3,25,54.8,55.8,54.8s55.8-24.5,55.8-54.8s-25-54.8-55.8-54.8S55.9,153.5,55.9,183.8z"/>
		<g>
			<path class="st0" d="M71.7,270.3c-1.2,1.9-2.3,3.5-3.4,4.9c-1.1,1.4-2.1,2.6-3,3.6c0,0,0,0,0,0c-1.3,1.4-3.5,1.5-5,0.3l-1.5-1.3
				c-1.4-1.2-1.6-3.2-0.6-4.7c0.5-0.7,1-1.4,1.6-2.2c1.3-1.8,57.4-74.8,58.6-76.6c0.8-1.2,1.3-2.2,1.6-2.9c0.3-0.8,0.4-1.4,0.3-2
				c-0.1-0.5-0.4-1-0.9-1.5l-0.5-0.4c-0.1-0.1-0.2-0.2-0.3-0.3c-0.1-0.1-0.2-0.1-0.3-0.2c-0.6-0.4-1.2-0.4-1.8-0.1
				c-0.6,0.4-1.2,1.1-2,2.2l-1.2,1.9c-1.8,2.8-4,4.5-6.5,5.1c-2.6,0.6-5,0.2-7.4-1.3c-0.7-0.4-1.3-0.9-1.9-1.4l-2.4-2.1
				c-2-1.8-3.4-3.6-4-5.6c-0.6-2-0.7-4.1-0.1-6.3c0.6-2.2,49.2-67.4,50.8-69.8c0.5-0.8,1.1-1.7,1.7-2.5c0.6-0.8,1.2-1.7,1.9-2.5
				c0.7-0.8,1.4-1.7,2.2-2.5c0,0,0,0,0,0c1.3-1.4,3.5-1.5,5-0.3l1.5,1.3c1.4,1.2,1.6,3.2,0.6,4.7c-0.2,0.3-0.4,0.6-0.6,0.9
				c-0.9,1.3-1.7,2.5-2.6,3.7c-0.8,1.2-49.1,65.2-49.8,66.2c-0.4,0.6-0.7,1.3-0.9,1.8c-0.2,0.6-0.2,1.1-0.1,1.7
				c0.1,0.5,0.4,1,0.9,1.4l0.5,0.4c0.1,0.1,0.2,0.2,0.4,0.3c0.1,0.1,0.3,0.2,0.4,0.3c0.6,0.4,1.2,0.5,1.8,0.3
				c0.6-0.2,1.1-0.7,1.7-1.5l1.3-2c2-3.1,4.3-5,6.9-5.7c2.6-0.7,5-0.3,7.4,1.1c0.6,0.3,1.2,0.8,1.8,1.3l3,2.6c1.7,1.4,2.9,3,3.7,4.7
				c0.7,1.7,0.9,3.6,0.4,5.8C129.8,193.4,73.6,267.2,71.7,270.3z"/>
		</g>
	</g>
</g>
<g>
	<g>
		<g>
			<path class="st0" d="M197.1,197.6c-2.7-0.9-4.8-2.6-6.4-5.1c-1.6-2.5-2.3-6-2.3-10.5c0-3.2,0.4-6.9,1.1-11
				c1-6.2,2.6-11.1,4.6-14.6c2-3.5,4.8-6,8.2-7.5c3.5-1.5,7.9-2.2,13.4-2.2c3.9,0,7.3,0.5,10,1.4c2.7,0.9,4.9,2.7,6.4,5.3
				c1.6,2.6,2.4,6.3,2.4,11c0,3-0.4,6.6-1.1,10.8c-1,6.4-2.6,11.3-4.6,14.7c-2,3.4-4.7,5.7-8.1,7c-3.4,1.3-7.9,1.9-13.5,1.9
				C203.1,198.9,199.8,198.5,197.1,197.6z M214.7,185.4c1.4-1,2.4-2.4,3.2-4.3c0.8-1.9,1.4-4.4,1.9-7.6c0.7-4.1,1-7,1-8.9
				c0-2.3-0.5-3.9-1.6-4.7c-1.1-0.8-2.9-1.2-5.5-1.2c-2.3,0-4.1,0.4-5.4,1.2c-1.3,0.8-2.4,2.2-3.2,4.2c-0.8,2-1.5,4.8-2.1,8.6
				c-0.7,3.9-1,6.7-1,8.6c0,2.1,0.5,3.5,1.6,4.3c1.1,0.8,3,1.2,5.6,1.2C211.6,186.8,213.4,186.4,214.7,185.4z"/>
			<path class="st0" d="M287.2,156.8c-0.8,0.5-1.2,1.5-1.3,3l-0.1,1.5h7.7l-1.7,10.7H284l-4.3,26.6H266l4.3-26.6h-14.6l-4.3,26.6
				h-13.7l4.3-26.6h-5l1.4-8.6l5.3-2.1l0.9-5.3c0.7-4,2.2-6.7,4.7-8.3c2.4-1.5,5.9-2.3,10.4-2.3c3.3,0,6.2,0.3,8.7,0.8l-1.6,9.9
				h-4.4c-1.6,0-2.8,0.3-3.5,0.8c-0.8,0.5-1.2,1.5-1.3,3l-0.1,1.5H272l0.9-5.3c0.7-4,2.2-6.7,4.7-8.3c2.4-1.5,5.9-2.3,10.4-2.3
				c3.3,0,6.2,0.3,8.7,0.8l-1.6,9.9h-4.4C289.1,156,287.9,156.2,287.2,156.8z"/>
			<path class="st0" d="M292.6,196.9l1.7-10.7c4.4,0.4,9.6,0.6,15.8,0.6c2.7,0,4.5-0.2,5.6-0.7c1.1-0.5,1.7-1.3,1.9-2.6l0.1-0.8
				c0-0.2,0.1-0.5,0.1-0.9c0-0.9-0.4-1.6-1.2-1.9c-0.8-0.4-2-0.6-3.8-0.6h-2.8c-4.2,0-7.5-1.1-9.9-3.4c-2.4-2.3-3.6-5.2-3.6-8.7
				c0-1,0.1-2,0.2-3l0.6-3.9c0.8-4.8,2.9-8.3,6.2-10.5c3.3-2.2,7.9-3.3,13.7-3.3c5.5,0,10.9,0.7,16.4,2l-1.7,10.7
				c-4.4-0.4-9.9-0.6-16.4-0.6c-3.2,0-5.1,1.1-5.4,3.3l-0.1,0.8c-0.1,0.6-0.1,0.9-0.1,1.2c0,1.9,1.2,2.8,3.6,2.8h3.1
				c4.6,0,8.2,1.1,10.7,3.3c2.6,2.2,3.8,5,3.8,8.5c0,0.8-0.1,1.7-0.2,2.7l-0.8,4.8c-0.5,2.9-1.4,5.3-2.7,7.1
				c-1.3,1.8-3.4,3.3-6.1,4.2c-2.7,1-6.4,1.5-10.9,1.5C303.5,198.9,297.6,198.3,292.6,196.9z"/>
			<path class="st0" d="M337.9,195.6c-2.6-2.3-3.9-5.5-3.9-9.8c0-2.5,0.2-4.9,0.6-7.2c0.8-4.9,2-8.7,3.7-11.2
				c1.6-2.5,3.8-4.3,6.5-5.2c2.7-0.9,6.3-1.3,10.9-1.3c4.2,0,7.5,0.5,9.7,1.5c2.2,1,3.8,2.4,4.6,4.4c0.8,2,1.2,4.7,1.2,8
				c0,2.3-0.2,4.8-0.6,7.5c-0.7,4.5-1.9,7.9-3.6,10.3c-1.7,2.4-3.9,4.1-6.6,5c-2.7,0.9-6.3,1.4-10.7,1.4
				C344.4,198.9,340.5,197.8,337.9,195.6z M354.2,187.6c0.7-0.4,1.3-1.2,1.7-2.2c0.4-1.1,0.8-2.7,1.2-4.9c0.4-3.1,0.6-5.2,0.6-6.3
				c0-1.1-0.3-1.8-0.8-2.2c-0.6-0.4-1.5-0.6-2.8-0.6c-1.4,0-2.4,0.2-3.1,0.7c-0.7,0.5-1.3,1.3-1.7,2.6c-0.4,1.2-0.8,3.2-1.2,5.8
				c-0.3,1.8-0.4,3.4-0.4,4.7c0,1.2,0.3,2,0.8,2.4c0.5,0.5,1.4,0.7,2.7,0.7C352.4,188.2,353.5,188,354.2,187.6z"/>
			<path class="st0" d="M374.8,190.1c0-1.7,0.1-3.3,0.4-4.8l3.9-24.1h13.7l-3.5,22.2c0,0.2-0.1,0.6-0.1,1c0,1.6,1,2.4,3,2.4
				c2.1,0,4-0.9,5.8-2.6l3.7-23.1h13.7l-6,37.3H397l-0.8-3.6c-2.1,1.5-4,2.5-5.7,3.1c-1.7,0.6-3.9,0.9-6.6,0.9
				C377.8,198.9,374.8,196,374.8,190.1z"/>
			<path class="st0" d="M421.5,161.2h12.3l0.6,5c1.4-1.7,2.9-3,4.4-3.9c1.6-1,3.3-1.5,5.1-1.5c1.3,0,2.3,0.1,3.2,0.3l-2,13.4h-4.1
				c-1.8,0-3.5,0.2-4.9,0.7c-1.5,0.5-2.6,1.1-3.5,1.8l-3.5,21.5h-13.7L421.5,161.2z"/>
			<path class="st0" d="M446.8,189l18-17.1h-16.1l1.7-10.7h31.9l-1.5,9.6l-18.1,17.1H478c-0.1,1.2-0.4,2.9-0.8,5.4
				c-0.4,2.4-0.7,4.2-0.9,5.3h-31.1L446.8,189z"/>
			<path class="st0" d="M486.6,195.3c-2.3-2.4-3.4-6-3.4-10.8c0-1.9,0.2-4.2,0.6-6.6c1-6.1,3.2-10.5,6.6-13.1
				c3.4-2.6,7.9-3.9,13.7-3.9c4.3,0,7.9,0.9,10.8,2.6c2.9,1.7,4.3,4.8,4.3,9.1c0,5-1.4,8.4-4.1,10.2c-2.7,1.8-6.5,2.7-11.5,2.7
				c-2.9,0-5.2-0.2-6.8-0.6c-0.1,0.6-0.1,1-0.1,1.4c0,1,0.6,1.8,1.7,2.2c1.1,0.5,2.9,0.7,5.3,0.7h12.6l-1.3,7.8
				c-5.3,1.3-10.9,1.9-16.9,1.9C492.7,198.9,488.9,197.7,486.6,195.3z M505.2,177.1c0.8-0.7,1.2-1.7,1.2-3.1c0-0.9-0.3-1.6-0.8-2.2
				c-0.6-0.5-1.4-0.8-2.5-0.8c-1.5,0-2.7,0.6-3.6,1.7c-0.9,1.1-1.6,2.8-2,5.2c1.2,0.2,2.1,0.3,2.7,0.3
				C502.8,178.1,504.4,177.8,505.2,177.1z"/>
		</g>
		<g>
			<g>
				<path class="st0" d="M189.6,217.5c0.2-1.5,0.8-2.6,1.5-3.2c0.8-0.6,1.7-0.9,2.9-0.9c2.9,0.1,5.5,0.1,7.9,0.3l-0.3,1.7h-7.4
					c-0.8,0-1.4,0.2-1.8,0.6c-0.4,0.4-0.7,1-0.8,1.9l-0.7,4.8l8.5,0.2l-0.3,1.7l-8.5,0.1l-1.3,8.7h-2.1L189.6,217.5z"/>
				<path class="st0" d="M203.5,218.9h1.8l0.1,1.8c1.4-1.3,2.8-1.9,4.3-1.9c0.7,0,1.3,0.1,1.7,0.2l-0.3,2.2
					c-0.5-0.1-1.1-0.2-1.8-0.2c-1.3,0-2.7,0.5-4.1,1.4l-1.7,11h-2.1L203.5,218.9z"/>
				<path class="st0" d="M213.4,232.4c-0.9-0.8-1.3-2-1.3-3.7c0-0.8,0.1-1.7,0.2-2.7c0.3-1.9,0.7-3.4,1.3-4.4c0.6-1,1.3-1.8,2.2-2.2
					c0.9-0.4,2.2-0.6,3.7-0.6c1.9,0,3.2,0.4,4,1.2c0.8,0.8,1.2,2.1,1.2,3.9c0,0.7-0.1,1.7-0.3,2.9c-0.3,1.8-0.7,3.1-1.2,4.1
					c-0.6,1-1.3,1.7-2.3,2.1c-0.9,0.4-2.2,0.6-3.7,0.6C215.6,233.5,214.3,233.1,213.4,232.4z M219.9,231.3c0.6-0.3,1.1-0.8,1.5-1.6
					c0.4-0.8,0.7-1.9,0.9-3.4c0.2-1,0.2-1.9,0.2-2.6c0-1.2-0.3-2-0.8-2.5c-0.5-0.5-1.4-0.7-2.6-0.7c-1,0-1.9,0.2-2.5,0.5
					c-0.6,0.3-1.1,0.9-1.5,1.7c-0.4,0.8-0.7,2.1-0.9,3.7c-0.1,0.9-0.2,1.6-0.2,2.2c0,1.2,0.3,2.1,0.9,2.5c0.6,0.5,1.4,0.7,2.5,0.7
					C218.5,231.8,219.3,231.6,219.9,231.3z"/>
				<path class="st0" d="M228.7,218.9h1.7l0.2,1.6c1.9-1.2,3.7-1.8,5.5-1.8c1,0,1.7,0.2,2.2,0.6c0.5,0.4,0.9,0.9,1.2,1.6
					c0.8-0.7,1.8-1.2,2.8-1.6c1-0.4,2-0.6,3-0.6c2.5,0,3.7,1.2,3.7,3.5c0,0.4-0.1,1-0.2,1.6l-1.5,9.6h-2.1l1.5-9.6
					c0.1-0.4,0.1-0.7,0.1-0.8c0-1.6-0.8-2.3-2.5-2.3c-0.9,0-1.7,0.1-2.4,0.4c-0.7,0.3-1.6,0.7-2.4,1.3c0,0.5,0,1.1-0.1,1.7l-1.4,9.3
					h-2.1l1.4-9.3c0.1-0.4,0.1-0.8,0.1-1.1c0-1.5-0.8-2.3-2.5-2.3c-0.9,0-1.6,0.1-2.3,0.4c-0.7,0.2-1.5,0.6-2.4,1.2l-1.7,11.2h-2.1
					L228.7,218.9z"/>
				<path class="st0" d="M266.2,213.5h2.7l3.5,19.9h-2.2l-1-5.7h-7.8l-2.8,5.7h-2.2L266.2,213.5z M268.9,225.8l-1.7-10.4l-5,10.4
					H268.9z"/>
				<path class="st0" d="M276.2,232.6c-0.6-0.5-0.8-1.2-0.8-2.1c0-0.7,0.1-1.3,0.2-2l2.4-15.7h2.1l-2.3,15.1c-0.2,1-0.2,1.7-0.2,2.1
					c0,0.6,0.1,1,0.4,1.3c0.3,0.3,0.7,0.4,1.2,0.5l1.4,0.1l-0.2,1.5h-1.5C277.5,233.4,276.7,233.1,276.2,232.6z"/>
				<path class="st0" d="M283.8,232.6c-0.6-0.5-0.8-1.2-0.8-2.1c0-0.7,0.1-1.3,0.2-2l2.4-15.7h2.1l-2.3,15.1c-0.2,1-0.2,1.7-0.2,2.1
					c0,0.6,0.1,1,0.4,1.3c0.3,0.3,0.7,0.4,1.2,0.5l1.4,0.1l-0.2,1.5h-1.5C285.2,233.4,284.4,233.1,283.8,232.6z"/>
				<path class="st0" d="M305.3,213.5h2.7l3.5,19.9h-2.2l-1-5.7h-7.8l-2.8,5.7h-2.2L305.3,213.5z M308,225.8l-1.7-10.4l-5,10.4H308z
					"/>
				<path class="st0" d="M316.3,218.9h1.8l0.1,1.8c1.4-1.3,2.8-1.9,4.3-1.9c0.7,0,1.3,0.1,1.7,0.2l-0.3,2.2
					c-0.5-0.1-1.1-0.2-1.8-0.2c-1.3,0-2.7,0.5-4.1,1.4l-1.7,11h-2.1L316.3,218.9z"/>
				<path class="st0" d="M326.3,232.4c-0.9-0.8-1.3-2-1.3-3.7c0-0.8,0.1-1.7,0.2-2.7c0.3-1.9,0.7-3.4,1.3-4.4s1.3-1.8,2.2-2.2
					c0.9-0.4,2.2-0.6,3.7-0.6c1.9,0,3.2,0.4,4,1.2c0.8,0.8,1.2,2.1,1.2,3.9c0,0.7-0.1,1.7-0.3,2.9c-0.3,1.8-0.7,3.1-1.2,4.1
					c-0.6,1-1.3,1.7-2.3,2.1c-0.9,0.4-2.2,0.6-3.7,0.6C328.4,233.5,327.1,233.1,326.3,232.4z M332.7,231.3c0.6-0.3,1.1-0.8,1.5-1.6
					c0.4-0.8,0.7-1.9,0.9-3.4c0.2-1,0.2-1.9,0.2-2.6c0-1.2-0.3-2-0.8-2.5c-0.5-0.5-1.4-0.7-2.6-0.7c-1,0-1.9,0.2-2.5,0.5
					c-0.6,0.3-1.1,0.9-1.5,1.7c-0.4,0.8-0.7,2.1-0.9,3.7c-0.1,0.9-0.2,1.6-0.2,2.2c0,1.2,0.3,2.1,0.9,2.5c0.6,0.5,1.4,0.7,2.5,0.7
					C331.3,231.8,332.1,231.6,332.7,231.3z"/>
				<path class="st0" d="M340.8,232.7c-0.6-0.6-0.9-1.4-0.9-2.5c0-0.5,0-1,0.1-1.5l1.5-9.7h2.1l-1.4,9.6c-0.1,0.3-0.1,0.6-0.1,0.9
					c0,1.5,0.8,2.2,2.5,2.2c0.9,0,1.6-0.1,2.3-0.4c0.7-0.2,1.5-0.6,2.4-1.1l1.7-11.2h2.1l-2.2,14.4h-1.8l-0.1-1.6
					c-0.9,0.6-1.8,1-2.6,1.3c-0.8,0.3-1.8,0.4-2.9,0.4C342.3,233.5,341.4,233.2,340.8,232.7z"/>
				<path class="st0" d="M356.6,218.9h1.7l0.2,1.6c0.8-0.5,1.6-1,2.6-1.3c0.9-0.3,1.9-0.5,2.9-0.5c1.2,0,2.2,0.3,2.7,0.9
					c0.6,0.6,0.9,1.4,0.9,2.5c0,0.6-0.1,1.5-0.3,2.5l-1.3,8.7h-2.1l1.3-8.7c0.1-0.9,0.2-1.5,0.2-1.8c0-1.5-0.8-2.3-2.5-2.3
					c-0.9,0-1.7,0.1-2.3,0.4c-0.7,0.2-1.5,0.6-2.3,1.2l-1.7,11.2h-2.1L356.6,218.9z"/>
				<path class="st0" d="M371.1,232.3c-0.7-0.8-1.1-2-1.1-3.6c0-1,0.1-2,0.3-2.9c0.3-1.6,0.7-2.9,1.2-3.9c0.5-1,1.2-1.8,2.1-2.3
					c0.9-0.5,2.2-0.8,3.7-0.8c1.4,0,2.6,0.3,3.6,0.8l1-6.8h2.1l-3.2,20.6H379l-0.1-1.5c-0.7,0.5-1.5,0.9-2.3,1.2
					c-0.9,0.3-1.7,0.5-2.6,0.5C372.8,233.5,371.8,233.1,371.1,232.3z M377,231.4c0.7-0.2,1.4-0.6,2.2-1l1.4-9.1
					c-0.9-0.5-2-0.8-3.3-0.8c-1.1,0-1.9,0.2-2.6,0.6c-0.6,0.4-1.2,1-1.5,1.8c-0.4,0.8-0.7,1.9-0.9,3.3c-0.1,0.9-0.2,1.6-0.2,2.2
					c0,1.2,0.3,2.1,0.8,2.6c0.5,0.6,1.2,0.8,2,0.8C375.5,231.8,376.3,231.7,377,231.4z"/>
				<path class="st0" d="M398.4,215.4h-6.1l0.3-1.9h14.2l-0.3,1.9h-6.1l-2.8,18h-2.1L398.4,215.4z"/>
				<path class="st0" d="M409.7,212.7h2.1l-1.2,7.8c0.8-0.5,1.6-1,2.6-1.3c0.9-0.3,1.9-0.5,3-0.5c2.4,0,3.5,1.2,3.5,3.5
					c0,0.5,0,0.9-0.1,1.4l-1.5,9.7H416l1.4-9.4c0.1-0.4,0.1-0.7,0.1-1c0-0.8-0.2-1.4-0.6-1.8c-0.4-0.4-1-0.6-1.8-0.6
					c-0.9,0-1.7,0.1-2.4,0.4c-0.7,0.2-1.5,0.6-2.3,1.2l-1.7,11.2h-2.1L409.7,212.7z"/>
				<path class="st0" d="M423.5,232.3c-0.9-0.8-1.4-2.1-1.4-3.8c0-0.9,0.1-1.9,0.3-3.1c0.3-2.2,1-3.9,2.2-5c1.2-1.1,2.8-1.7,4.9-1.7
					c1.6,0,2.8,0.3,3.7,0.9c0.9,0.6,1.3,1.6,1.3,3c0,1.8-0.6,3-1.8,3.7c-1.2,0.7-2.8,1-4.7,1c-0.8,0-1.5,0-2.2-0.1
					c-0.7-0.1-1.2-0.2-1.6-0.3c-0.1,0.5-0.1,1-0.1,1.7c0,1.1,0.3,2,1,2.5c0.7,0.5,1.8,0.8,3.3,0.8h4.2l-0.2,1.3
					c-1.6,0.2-3.2,0.4-4.7,0.4C425.8,233.5,424.4,233.1,423.5,232.3z M431.2,225.3c0.9-0.5,1.3-1.3,1.3-2.5c0-0.9-0.3-1.5-0.8-1.9
					c-0.5-0.4-1.3-0.6-2.4-0.6c-1.5,0-2.7,0.4-3.4,1.3c-0.8,0.9-1.3,2.3-1.5,4.1c0.9,0.2,1.9,0.2,2.9,0.2
					C429,226.1,430.3,225.8,431.2,225.3z"/>
				<path class="st0" d="M444.5,213.5h2.2l2.2,16.9l6.7-16.9h2.1l1.3,16.9l7.6-16.9h2.2l-8.8,19.9h-2.3l-1.4-16.8l-6.8,16.8H447
					L444.5,213.5z"/>
				<path class="st0" d="M469.3,232.4c-0.9-0.8-1.3-2-1.3-3.7c0-0.8,0.1-1.7,0.2-2.7c0.3-1.9,0.7-3.4,1.3-4.4c0.6-1,1.3-1.8,2.2-2.2
					c0.9-0.4,2.2-0.6,3.7-0.6c1.9,0,3.2,0.4,4,1.2c0.8,0.8,1.2,2.1,1.2,3.9c0,0.7-0.1,1.7-0.3,2.9c-0.3,1.8-0.7,3.1-1.2,4.1
					c-0.6,1-1.3,1.7-2.3,2.1c-0.9,0.4-2.2,0.6-3.7,0.6C471.5,233.5,470.2,233.1,469.3,232.4z M475.8,231.3c0.6-0.3,1.1-0.8,1.5-1.6
					c0.4-0.8,0.7-1.9,0.9-3.4c0.2-1,0.2-1.9,0.2-2.6c0-1.2-0.3-2-0.8-2.5c-0.5-0.5-1.4-0.7-2.6-0.7c-1,0-1.9,0.2-2.5,0.5
					c-0.6,0.3-1.1,0.9-1.5,1.7c-0.4,0.8-0.7,2.1-0.9,3.7c-0.1,0.9-0.2,1.6-0.2,2.2c0,1.2,0.3,2.1,0.9,2.5c0.6,0.5,1.4,0.7,2.5,0.7
					C474.4,231.8,475.2,231.6,475.8,231.3z"/>
				<path class="st0" d="M484.6,218.9h1.8l0.1,1.8c1.4-1.3,2.8-1.9,4.3-1.9c0.7,0,1.3,0.1,1.7,0.2l-0.3,2.2
					c-0.5-0.1-1.1-0.2-1.8-0.2c-1.3,0-2.7,0.5-4.1,1.4l-1.7,11h-2.1L484.6,218.9z"/>
				<path class="st0" d="M494.1,232.6c-0.6-0.5-0.8-1.2-0.8-2.1c0-0.7,0.1-1.3,0.2-2l2.4-15.7h2.1l-2.3,15.1c-0.2,1-0.2,1.7-0.2,2.1
					c0,0.6,0.1,1,0.4,1.3c0.3,0.3,0.7,0.4,1.2,0.5l1.4,0.1l-0.2,1.5h-1.5C495.5,233.4,494.7,233.1,494.1,232.6z"/>
				<path class="st0" d="M501.9,232.3c-0.7-0.8-1.1-2-1.1-3.6c0-1,0.1-2,0.3-2.9c0.3-1.6,0.7-2.9,1.2-3.9c0.5-1,1.2-1.8,2.1-2.3
					c0.9-0.5,2.2-0.8,3.7-0.8c1.4,0,2.6,0.3,3.6,0.8l1-6.8h2.1l-3.2,20.6h-1.8l-0.1-1.5c-0.7,0.5-1.5,0.9-2.3,1.2
					c-0.9,0.3-1.7,0.5-2.6,0.5C503.7,233.5,502.7,233.1,501.9,232.3z M507.9,231.4c0.7-0.2,1.4-0.6,2.2-1l1.4-9.1
					c-0.9-0.5-2-0.8-3.3-0.8c-1.1,0-1.9,0.2-2.6,0.6c-0.6,0.4-1.2,1-1.5,1.8c-0.4,0.8-0.7,1.9-0.9,3.3c-0.1,0.9-0.2,1.6-0.2,2.2
					c0,1.2,0.3,2.1,0.8,2.6c0.5,0.6,1.2,0.8,2,0.8C506.4,231.8,507.2,231.7,507.9,231.4z"/>
			</g>
		</g>
	</g>
</g>
</svg>
