<?xml version="1.0" encoding="utf-8"?>
<!-- Generator: Adobe Illustrator 25.4.1, SVG Export Plug-In . SVG Version: 6.00 Build 0)  -->
<svg version="1.1" id="Layer_1" xmlns="http://www.w3.org/2000/svg" xmlns:xlink="http://www.w3.org/1999/xlink" x="0px" y="0px"
	 viewBox="0 0 1325 962" style="enable-background:new 0 0 1325 962;" xml:space="preserve">
<style type="text/css">
	.st0{fill:url(#SVGID_1_);}
	.st1{clip-path:url(#SVGID_00000083804862407167991710000006421991723524459408_);}
	.st2{fill:#CCA7D2;}
	.st3{clip-path:url(#SVGID_00000116222257493031330960000012601809000004415661_);}
	.st4{clip-path:url(#SVGID_00000069391002467716634320000010526509044880079280_);}
	.st5{fill:url(#SVGID_00000136379566852202909610000003846600676092463005_);}
	.st6{fill:url(#SVGID_00000121973963198224340260000007134684792942437805_);}
	.st7{fill:#DD9327;}
	.st8{fill:#2D2D2D;}
	.st9{font-family:'Exo-Medium';}
	.st10{font-size:22.66px;}
	.st11{letter-spacing:-1;}
	.st12{fill:#FFFFFF;}
	.st13{fill:none;}
	.st14{fill:url(#SVGID_00000067929564713188123030000015886577796562126517_);}
	.st15{fill:url(#SVGID_00000026140336848004561250000006222208223318655132_);}
	.st16{fill:url(#SVGID_00000015339986276611050300000000725964150392526766_);}
	.st17{fill:url(#SVGID_00000064331335571628605970000008019788529437449661_);}
	.st18{fill:url(#SVGID_00000150090224977056725830000001013283115933467031_);}
	.st19{fill:url(#SVGID_00000067953695773893677020000009424657200561756087_);}
	.st20{fill:url(#SVGID_00000128487326767951779700000013656309825439977372_);}
	.st21{fill:url(#SVGID_00000170959892993727411120000012813966863574997655_);}
	.st22{fill:url(#SVGID_00000152969306097299423780000002990827325407889040_);}
	.st23{fill:url(#SVGID_00000031925459050158088790000001948212116376848018_);}
	.st24{fill:url(#SVGID_00000151525710357500085160000011273743007454471584_);}
	.st25{fill:url(#SVGID_00000031907833326881529220000005906010380149010833_);}
	.st26{fill:url(#SVGID_00000075868931534767857220000012540975524120198796_);}
	.st27{fill:url(#SVGID_00000148643406719732456110000017395402102089277060_);}
	.st28{fill:url(#SVGID_00000173857993919469363000000011977251204766945936_);}
	.st29{fill:url(#SVGID_00000072992483739235677940000010709824822079228562_);}
	.st30{fill:url(#SVGID_00000013162270934240760660000003461190232554785967_);}
	.st31{fill:url(#SVGID_00000111172462362978438990000017211744775693797521_);}
	.st32{fill:url(#SVGID_00000155831067479504396010000004884422920985761448_);}
	.st33{fill:url(#SVGID_00000029756644726193739980000001472661824033051023_);}
	.st34{fill:url(#SVGID_00000163765247359496166250000014531255059281862568_);}
	.st35{fill:url(#SVGID_00000055703998862463245180000014665755611413164466_);}
	.st36{fill:url(#SVGID_00000119115888729228423620000012331143041846697112_);}
	.st37{fill:url(#SVGID_00000091726798626440966630000005283885676672850363_);}
	.st38{fill:url(#SVGID_00000041994583746235002900000011256729212971294852_);}
	.st39{fill:url(#SVGID_00000073688685748821996610000005094429520467746735_);}
	.st40{fill:url(#SVGID_00000117634207487908199960000017436532199432894639_);}
	.st41{fill:url(#SVGID_00000162310843127612697400000002137887960186473871_);}
	.st42{fill:url(#SVGID_00000121247941332996002050000008369299671017730698_);}
	.st43{fill:url(#SVGID_00000018924764729926850450000013365131783210946999_);}
	.st44{fill:url(#SVGID_00000142142978503081299610000016245145303201791368_);}
	.st45{fill:url(#SVGID_00000014603026351595488410000001133017465058122681_);}
	.st46{fill:url(#SVGID_00000045584604361347110840000015700791381507913388_);}
	.st47{fill:url(#SVGID_00000036226895633108647300000004427406503681364920_);}
	.st48{fill:url(#SVGID_00000031192093790290563520000007291814138640584074_);}
	.st49{fill:url(#SVGID_00000062893147649353328490000017423151366778791324_);}
	.st50{fill:url(#SVGID_00000109010706932681770770000017394683515833621675_);}
	.st51{fill:url(#SVGID_00000026127810294387453770000007028530301824916623_);}
	.st52{fill:url(#SVGID_00000065063896573346331550000017529451084607592623_);}
	.st53{fill:url(#SVGID_00000132066546474923514230000001421469090124769432_);}
	.st54{fill:url(#SVGID_00000041272109657612191130000001631966473687842187_);}
	.st55{fill:url(#SVGID_00000104676126947159071690000006341200982900496288_);}
	.st56{fill:url(#SVGID_00000086664835517935353790000017667641524010385073_);}
	.st57{fill:url(#SVGID_00000042003942926562654500000007049870229613877654_);}
	.st58{fill:url(#SVGID_00000129199971543100495190000015128650925931823753_);}
	.st59{fill:url(#SVGID_00000175321289652807107320000004687359789980325259_);}
	.st60{fill:url(#SVGID_00000051349674607707958890000006183743158806011563_);}
	.st61{fill:url(#SVGID_00000170269436191093124960000009270356355990642096_);}
	.st62{fill:url(#SVGID_00000092430888045347627730000000873141245018320290_);}
	.st63{fill:url(#SVGID_00000106843453823189465740000014548985223833192083_);}
	.st64{fill:url(#SVGID_00000110433552799864260130000004695163670054928554_);}
	.st65{fill:url(#SVGID_00000042723439089158529990000013198299257876764035_);}
	.st66{fill:url(#SVGID_00000049207322732437525800000002198826187029364639_);}
	.st67{fill:url(#SVGID_00000097464282863187928720000006507689330803532196_);}
	.st68{fill:url(#SVGID_00000165928418672267638810000000229292221634591405_);}
	.st69{fill:url(#SVGID_00000028315949781569674070000017438735905767535288_);}
	.st70{fill:url(#SVGID_00000158729171497581317690000003150836833498662333_);}
	.st71{fill:url(#SVGID_00000153689869032854914220000002067491583779335329_);}
	.st72{fill:url(#SVGID_00000093173006965039783900000009353392735471718312_);}
	.st73{fill:url(#SVGID_00000032635146263604599920000001933830196181108099_);}
	.st74{fill:url(#SVGID_00000169535942418294949660000011251990259509772206_);}
	.st75{fill:url(#SVGID_00000003092260746445120910000004236505359295261319_);}
	.st76{fill:url(#SVGID_00000117647181561781868880000016916907992634715284_);}
	.st77{fill:url(#SVGID_00000168113845734667447040000007906802718728727732_);}
	.st78{fill:url(#SVGID_00000152243112245434910300000008069761589785011105_);}
	.st79{fill:url(#SVGID_00000176044005129718671140000013423087284727422351_);}
	.st80{fill:url(#SVGID_00000050663991060828870600000009576461831357017269_);}
	.st81{fill:url(#SVGID_00000071561817164020282350000005595053668474488719_);}
	.st82{fill:url(#SVGID_00000011729360780159379810000008611219732800248724_);}
	.st83{fill:url(#SVGID_00000031896702891014538890000015460786046386665605_);}
	.st84{fill:url(#SVGID_00000134246303266195052350000015815828423536935091_);}
	.st85{fill:url(#SVGID_00000120536979458113737780000009906722848585294484_);}
	.st86{fill:url(#SVGID_00000122707500226517675930000008157873714177745290_);}
	.st87{fill:url(#SVGID_00000101092109257783721630000001082776308398516148_);}
	.st88{fill:url(#SVGID_00000018206235311439316650000000238721271533431460_);}
	.st89{fill:url(#SVGID_00000164505405943280787590000006841657786064874943_);}
	.st90{fill:url(#SVGID_00000002368675781435240210000016319580361367703974_);}
	.st91{fill:url(#SVGID_00000018954855985349235780000003489882000452701830_);}
	.st92{fill:url(#SVGID_00000127729415843667967050000002054821668947556517_);}
	.st93{fill:url(#SVGID_00000087382050807009422730000007633776961893327775_);}
	.st94{fill:url(#SVGID_00000020388111869557282950000011551618644299131570_);}
	.st95{fill:url(#SVGID_00000065076756732257311960000010038399554870266524_);}
	.st96{fill:url(#SVGID_00000136376215636206046770000002828832194344900015_);}
	.st97{fill:url(#SVGID_00000067217251208722147260000000025620487323596981_);}
	.st98{fill:url(#SVGID_00000070102550005847673020000007636410634795945606_);}
	.st99{fill:url(#SVGID_00000112629921767931932550000017602778195215563150_);}
	.st100{fill:url(#SVGID_00000042002646758301574450000000211814220449797566_);}
	.st101{fill:url(#SVGID_00000116216514176950644340000011117360532908210615_);}
	.st102{fill:url(#SVGID_00000075130095759547916260000014388704487028606141_);}
	.st103{fill:url(#SVGID_00000182489941822391302890000003530608411196537525_);}
	.st104{fill:url(#SVGID_00000016762067175096523330000003385188272133592234_);}
	.st105{fill:url(#SVGID_00000050648103529271433880000012110908394904994998_);}
	.st106{fill:url(#SVGID_00000170983900705481636420000011301434445438137216_);}
	.st107{fill:url(#SVGID_00000114037826813024675390000017815192273006532509_);}
	.st108{fill:url(#SVGID_00000136397971650818938190000001578845214489660058_);}
	.st109{fill:#29178E;}
	.st110{fill:url(#SVGID_00000062189074223402040380000014283083929545170581_);}
	.st111{fill:url(#SVGID_00000161629172822609993320000017916609985973694084_);}
	.st112{fill:url(#SVGID_00000171681220951721513930000000307537310621248189_);}
	.st113{fill:url(#SVGID_00000123432336154496654780000015485119297150115984_);}
	.st114{fill:url(#SVGID_00000018237674545180752460000009924168842698266273_);}
	.st115{fill:url(#SVGID_00000117666222503727727470000004468219431800136083_);}
	.st116{fill:url(#SVGID_00000020399494878943268660000008355387088808749739_);}
	.st117{fill:url(#SVGID_00000075160098158567198050000013786249299418304912_);}
	.st118{fill:url(#SVGID_00000180364286741069608580000018082941150332964758_);}
	.st119{fill:url(#SVGID_00000052816446780403723800000006966195809294205360_);}
	.st120{fill:url(#SVGID_00000144313615640335874580000014132205705079510913_);}
	.st121{fill:url(#SVGID_00000177469724575647542200000007485117984946239915_);}
	.st122{fill:url(#SVGID_00000016788831892793602680000016102627639755409307_);}
</style>
<linearGradient id="SVGID_1_" gradientUnits="userSpaceOnUse" x1="701.645" y1="614.753" x2="1000.6509" y2="614.753">
	<stop  offset="0" style="stop-color:#6610A3"/>
	<stop  offset="0.35" style="stop-color:#451498"/>
	<stop  offset="1" style="stop-color:#001B80"/>
</linearGradient>
<polygon class="st0" points="776.1,484.6 923.9,483.9 1000.2,616.4 927.5,745.6 776.5,745.3 701.2,613.8 "/>
<g>
	<g>
		<defs>
			<rect id="SVGID_00000135687277992723517560000005390236291849099906_" x="441.1" y="495" width="1008" height="484"/>
		</defs>
		<clipPath id="SVGID_00000170991197174485795500000017046903663557230757_">
			<use xlink:href="#SVGID_00000135687277992723517560000005390236291849099906_"  style="overflow:visible;"/>
		</clipPath>
	</g>
</g>
<g>
	<g>
		<defs>
			<rect id="SVGID_00000162345531417269159720000018387524682375401364_" x="440.1" y="1001" width="459" height="1624"/>
		</defs>
		<clipPath id="SVGID_00000081649857101358478100000016691880531374635173_">
			<use xlink:href="#SVGID_00000162345531417269159720000018387524682375401364_"  style="overflow:visible;"/>
		</clipPath>
		<g style="clip-path:url(#SVGID_00000081649857101358478100000016691880531374635173_);">
			<g>
				<g>
					<defs>
						
							<rect id="SVGID_00000082343939016865665720000012029549487908110270_" x="-404.5" y="1106.3" transform="matrix(0.7071 -0.7071 0.7071 0.7071 -1123.1329 628.0958)" width="1202.2" height="1127"/>
					</defs>
					<clipPath id="SVGID_00000161610504022776374810000009901845340717895349_">
						<use xlink:href="#SVGID_00000082343939016865665720000012029549487908110270_"  style="overflow:visible;"/>
					</clipPath>
				</g>
			</g>
		</g>
	</g>
</g>
<ellipse transform="matrix(0.9125 -0.4091 0.4091 0.9125 -242.3162 92.548)" class="st7" cx="95.2" cy="612.7" rx="14.2" ry="14.2"/>
<circle class="st7" cx="248.3" cy="351.1" r="14.2"/>
<circle class="st7" cx="551.7" cy="876.6" r="14.2"/>
<circle class="st7" cx="701.7" cy="876.6" r="14.2"/>
<ellipse transform="matrix(0.1602 -0.9871 0.9871 0.1602 363.4114 1654.9348)" class="st7" cx="1154.3" cy="613.9" rx="14.2" ry="14.2"/>
<ellipse transform="matrix(0.9239 -0.3827 0.3827 0.9239 -91.0241 507.3733)" class="st7" cx="1229.8" cy="482.5" rx="14.2" ry="14.2"/>
<ellipse transform="matrix(0.1607 -0.987 0.987 0.1607 756.7757 1060.6498)" class="st7" cx="1002" cy="85.3" rx="14.2" ry="14.2"/>
<ellipse transform="matrix(0.7071 -0.7071 0.7071 0.7071 142.976 522.0138)" class="st7" cx="701.6" cy="88.4" rx="14.2" ry="14.2"/>
<g>
	<path class="st7" d="M558.7,363.1l-0.3,0.1C558.5,363.1,558.6,363.2,558.7,363.1z"/>
	<path class="st7" d="M558.8,359.2l-0.7,0.7c-0.2,0.2-0.4,0.3-0.6,0.5c-0.4,0.3-0.7,0.5-1.1,0.7c-0.8,0.4-1.5,0.8-2.7,1.4
		c-1.2,0.5-2.5,0.8-3.9,0.9c-0.2,0.1-0.4,0.1-0.5,0.2c-0.2,0-0.4,0-0.6,0H548c-0.2,0-0.4,0-0.6,0l-0.3-0.2c-0.3,0.1-0.6,0-0.8-0.1
		l0,0c-0.3,0-0.7-0.1-1-0.1l0,0l-0.4-0.1h0.1c-0.6-0.1-1.3-0.3-1.8-0.7l-0.1,0.2c-1-0.9-1.7-0.8-2.4-1.8l0,0
		c-0.6-0.2-1.1-0.7-1.4-1.3c-0.3-0.6-0.7-1.1-1.2-1.6c0.2,0.1,0.1-0.1,0.1-0.1l-0.3-0.4c-0.1-0.1-0.2-0.3-0.3-0.4
		c-0.2-0.2-0.4-0.4-0.6-0.3c-0.2-0.5,0-0.5,0.1-0.6c-0.2,0.1-0.4-0.3-0.5-0.7l0.1,0.2l-0.1-0.2c-0.1-0.1-0.1-0.3-0.1-0.4l-0.2-0.6
		l-0.3,0.3c-0.1-0.6,0.4-0.3,0.1-0.8l-0.3,0.1c0-0.8,0.2-1.6,0.5-2.3c0-1.7,0.2-3.5,0.7-5.1s1.4-3.1,2.8-4.2h0.3
		c0.2,0.2,0.3-0.9,0.6-0.8l0.2-0.4c0.1,0,0.3-0.1,0.2,0.1c0.3-0.2,0.3-0.2,0.4-0.5l0.4-0.1c1.2-0.6,2-1.5,3.4-1.8
		c0.9,0,2-0.3,3.3-0.4l0.5-0.1h0.5h0.9c0.6,0,1.2,0,1.6,0.1c1.4,0.1,2.7,0.7,3.8,1.7c1.1,0.9,2,1.9,3.1,2.8c0,0.1,0.2,0.2,0.3,0.2
		l0.2,0.3c0.2,0.2,0.3,0.4,0.5,0.7l0.4,0.7c0.1,0.1,0.1,0.2,0.2,0.3l0.2,0.4l0.2,0.5l0.3,0.6c0.4,1,0.7,2,1,3
		c0.2,0.9,0.5,1.6,0.8,1.4c0.2-0.1,0.4-0.4,0.6-1c0-0.1,0.1-0.3,0.2-0.5s0.1-0.4,0.1-0.6s0.1-0.5,0.1-0.8s0-0.6,0-1h0.1
		c-0.1-1.3-0.6-2.5-1.5-3.4c0.3-0.4-0.6-1.1-0.7-1.5l0,0c-0.4-0.3-0.7-0.7-0.9-1.2c-0.2-0.4-0.6-0.8-1-1.1c0.1,0,0.2,0,0.3,0.1
		c-0.5-0.5-1.3-1-1.2-1.2l-1.1-0.8c-0.4-0.3-0.8-0.5-1.2-0.7c-0.7-0.4-1.4-0.6-2.2-0.7h0.1c-0.7,0.1-0.7-0.3-1.4-0.3l-0.1-0.1
		c-0.4,0-0.8,0-1.2-0.1s-0.8-0.1-1.1-0.2v-0.2h-1.3l0.5,0.1c-0.1,0.2-0.3,0.1-0.7,0s-0.8-0.1-1.2,0c-0.5,0-0.9,0.2-1.2,0.6
		c-0.2,0.1-0.4,0.3-0.6,0.4c-0.2,0.1-0.4,0.2-0.6,0.2c-0.3,0.3,0.3-0.4-0.3-0.1c-0.1-0.2,0.2-0.2,0-0.4c-0.6,0.3-1.1,0-1.7,0.5
		l-0.1-0.2c-0.8,0.7-1.9,0.6-2.3,1.2c-0.8,0.7-0.9-0.1-1.6,0.9l-0.5,0.1c-0.4,0.3,0,0.5-0.5,0.7c-0.1-0.1-0.6,0.4-0.5,0
		c-0.5,0.4-0.9,0.9-1.3,1.4c-0.4,0.6-0.8,1.2-1.3,1.7c0,0.3-0.1,0.5-0.2,0.7c-0.1,0.2-0.2,0.4-0.2,0.7c-0.1,0-0.3,0.3-0.4,0.6
		s-0.2,0.4-0.2-0.1c0-0.1,0.1-0.2,0.1-0.2l-0.1-0.2c-0.3,0.3-0.5,0.7-0.5,1.2c0,0.4-0.1,0.9-0.2,1.3c0.1-0.3,0.2-0.6,0.3-0.3
		l-0.2,0.8l-0.1-0.2l-0.2,0.6c-0.1,0.3-0.2,0.6-0.2,0.6l0.2-0.1c-0.2,0.6-0.6,0.8-0.3,1.5c0.1,0.3,0.3-0.5,0.3,0.1
		c-0.1,0.5-0.2,1-0.3,1.4c-0.1,0.5-0.1,1.1-0.1,1.6c0.2-0.1,0.2,0.2,0.3,0.4l-0.2,0.1c0.4,1-0.4,0.5,0.1,1.5l-0.2-0.1l0.5,0.2
		c0.6,0.9-0.2,0.6,0.6,1.5c-0.2-0.4,0.3-0.3,0.4,0.2l-0.2-0.1c0.1,0.2,0.2,0.3,0.3,0.5c-0.2-0.1-0.3,0-0.1,0.4l-0.3-0.2l0.7,0.6
		c0.1,0.7,0.9,1.4,0.8,1.8c0,0.1,0.1,0.1,0.1,0.2c0.1,0.1,0.2,0.3,0.3,0.4c0.2,0.3,0.5,0.6,0.7,0.6c-0.3-0.1,0.1,0.5-0.2,0.5
		c0.6,0.3,1,0.7,1.4,1.2h-0.1c0.2,0.3,0.5,0.5,0.8,0.8c0.3,0.2,0.6,0.4,0.8,0.5c0.6,0.3,1.2,0.7,1.7,1.1c0-0.2,0.7,0.2,0.6-0.1
		c0.3,0.1,0.6,0.2,0.9,0.4l0.8,0.4c0.5,0.3,0.9,0.4,1.3,0c0.6,0.1,0.7,0.4,1,0.5h-0.2c1.2,0.1,1.5,0.2,2.5,0.2
		c0.5-0.1,0.5-0.4,1.3-0.4c-0.3,0.2,0.1,0.1,0.4,0.1c-0.2,0-0.2,0.1,0.2,0.2c0.1-0.1,0.1-0.1,0.2-0.1l0,0c0.5-0.1,0.4-0.1,0.2-0.1
		c0,0,0-0.1-0.1-0.1c0.5,0.1,1.4-0.2,1.5,0c1.2-0.4,2.4-0.9,3.4-1.6c0.2,0.1,0,0.3-0.3,0.5l0.8-0.4c0.1,0.2-0.4,0.3-0.6,0.5
		c1.1-0.2,1.8-1.2,2.9-1.7l0.1-0.3h0.1c0-0.1,0.1-0.3,0.2-0.5c0.2,0,0.2,0.3,0.7-0.1c0.3-0.2,0.5-0.4,0.7-0.6
		c0.2-0.3,0.4-0.6,0.6-0.9c-0.3,0.2-0.3,0.1-0.2-0.1s0.5-0.2,0.5-0.5l0.2,0.1c-0.2,0,0.3-0.8,0.3-0.9c0.2,0-0.2,0.5-0.1,0.6
		c0.4-0.5,0.7-1,1-1.5c0.2-0.6-0.3,0-0.3-0.4c0.2-0.6,0.4-1.1,0.7-1.6l-0.3,0.1c0.2-0.8,0.4-1.5,0.8-2.2v-0.7c0-0.2,0-0.4-0.1-0.6
		c0-0.3-0.1-0.7-0.1-1c-0.1-0.4-0.2-0.8-0.4-1.2c-0.3-0.5-0.5-0.5-0.7-0.2s-0.4,0.7-0.5,1c0,0.2-0.1,0.4-0.2,0.5l-0.1,0.2
		c-0.4,1.2-0.7,2.1-0.9,3.1C559.9,357.2,559.4,358.3,558.8,359.2z"/>
</g>
<g>
	<path class="st7" d="M335,757.2l-0.3,0.1C334.8,757.3,334.8,757.3,335,757.2z"/>
	<path class="st7" d="M335.1,753.3l-0.7,0.7c-0.2,0.2-0.4,0.3-0.6,0.5c-0.4,0.3-0.7,0.5-1.1,0.7c-0.8,0.4-1.5,0.8-2.7,1.4
		c-1.2,0.5-2.5,0.8-3.9,0.9c-0.2,0.1-0.4,0.1-0.5,0.2c-0.2,0-0.4,0-0.6,0h-0.7c-0.2,0-0.4,0-0.6,0l-0.3-0.2
		c-0.3,0.1-0.6,0.1-0.8-0.1l0,0c-0.3,0-0.7-0.1-1-0.1l0,0l-0.4-0.1h0.1c-0.6-0.1-1.3-0.3-1.8-0.7l-0.1,0.2c-1-0.9-1.6-0.8-2.4-1.8
		l0,0c-0.6-0.2-1.1-0.7-1.4-1.3s-0.7-1.1-1.2-1.6c0.2,0.1,0.1-0.1,0.1-0.1l-0.3-0.4c-0.1-0.1-0.2-0.3-0.3-0.4
		c-0.2-0.2-0.4-0.3-0.6-0.3c-0.2-0.5,0-0.5,0.1-0.6c-0.2,0.1-0.4-0.3-0.5-0.7l0.1,0.2l-0.1-0.2c-0.1-0.1-0.1-0.2-0.1-0.4l-0.2-0.6
		l-0.3,0.3c-0.1-0.7,0.4-0.3,0.1-0.8l-0.3,0.1c0-0.8,0.2-1.6,0.5-2.3c0-1.7,0.2-3.5,0.7-5.1s1.4-3.1,2.8-4.2h0.3
		c0.2,0.2,0.3-0.9,0.6-0.8l0.2-0.4c0.1,0,0.3-0.1,0.2,0.1c0.3-0.2,0.3-0.2,0.4-0.5l0.4-0.1c1.2-0.6,2-1.4,3.4-1.8
		c0.9,0,2-0.3,3.3-0.4l0.5-0.1h0.5h0.9c0.6,0,1.1,0,1.6,0.1c1.4,0.1,2.7,0.7,3.8,1.7c1.1,0.9,2,1.9,3.1,2.8c0,0.1,0.2,0.2,0.3,0.2
		l0.2,0.3c0.2,0.2,0.3,0.4,0.5,0.7s0.3,0.5,0.4,0.7c0.1,0.1,0.1,0.2,0.2,0.3l0.2,0.4l0.2,0.5l0.3,0.6c0.4,1,0.7,2,1,3
		c0.2,0.9,0.5,1.6,0.8,1.4c0.2-0.1,0.4-0.4,0.6-1c0-0.2,0.1-0.3,0.2-0.5s0.1-0.4,0.1-0.7s0.1-0.5,0.1-0.8s0-0.6,0-1h0.1
		c-0.1-1.3-0.6-2.5-1.5-3.4c0.3-0.3-0.6-1.2-0.7-1.5l0,0c-0.4-0.3-0.7-0.7-0.9-1.2c-0.2-0.4-0.6-0.8-1-1.1c0.1,0,0.2,0,0.3,0.1
		c-0.5-0.5-1.3-1-1.2-1.2l-1.1-0.8c-0.4-0.3-0.8-0.5-1.2-0.7c-0.7-0.4-1.4-0.6-2.2-0.7h0.1c-0.7,0.1-0.7-0.3-1.4-0.3l-0.1-0.1
		c-0.4,0-0.8,0-1.2-0.2c-0.4-0.1-0.8-0.1-1.1-0.2v-0.2H326l0.5,0.1c-0.1,0.2-0.3,0.1-0.7,0c-0.4-0.1-0.8-0.1-1.2,0
		c-0.5,0.1-0.9,0.3-1.3,0.6c-0.2,0.1-0.4,0.3-0.6,0.4c-0.2,0.1-0.4,0.2-0.6,0.2c-0.4,0.3,0.3-0.4-0.3-0.1c-0.1-0.2,0.2-0.2,0-0.4
		c-0.6,0.3-1.1,0-1.7,0.5l-0.1-0.2c-0.8,0.7-1.9,0.6-2.3,1.2c-0.8,0.7-0.9-0.1-1.6,0.9l-0.5,0.1c-0.4,0.3,0,0.5-0.5,0.7
		c-0.1-0.1-0.6,0.4-0.5,0c-0.5,0.4-0.9,0.9-1.3,1.4c-0.4,0.6-0.8,1.2-1.3,1.7c0,0.3-0.1,0.5-0.2,0.7s-0.2,0.4-0.1,0.7
		c-0.1,0-0.3,0.3-0.4,0.6s-0.2,0.4-0.2-0.1c0-0.1,0.1-0.2,0.1-0.2l-0.1-0.2c-0.3,0.3-0.5,0.7-0.5,1.2c0,0.4-0.1,0.9-0.2,1.3
		c0.1-0.3,0.2-0.6,0.3-0.3l-0.2,0.8l-0.1-0.2l-0.2,0.6c-0.1,0.3-0.1,0.6-0.1,0.6l0.2-0.1c-0.2,0.6-0.6,0.8-0.3,1.5
		c0.1,0.3,0.3-0.5,0.3,0.1c-0.1,0.5-0.2,1-0.3,1.4c-0.1,0.5-0.1,1.1-0.1,1.6c0.2-0.1,0.2,0.2,0.3,0.4l-0.2,0.1
		c0.4,1-0.4,0.5,0.1,1.5l-0.1-0.1l0.5,0.2c0.6,0.9-0.2,0.7,0.6,1.5c-0.2-0.4,0.3-0.3,0.4,0.2l-0.2-0.1c0.1,0.2,0.2,0.3,0.3,0.5
		c-0.2-0.1-0.3,0-0.1,0.4l-0.3-0.2l0.7,0.6c0.1,0.7,0.9,1.4,0.8,1.7c0,0.1,0.1,0.1,0.1,0.2l0.3,0.4c0.2,0.3,0.5,0.6,0.7,0.7
		c-0.3-0.1,0.1,0.5-0.1,0.5c0.6,0.3,1,0.7,1.4,1.2H315c0.2,0.3,0.5,0.5,0.8,0.8c0.3,0.2,0.6,0.4,0.9,0.5c0.6,0.3,1.2,0.6,1.7,1
		c0-0.2,0.7,0.2,0.6-0.1c0.3,0.1,0.6,0.2,0.9,0.4c0.3,0.1,0.5,0.3,0.8,0.4c0.5,0.3,0.9,0.3,1.3,0c0.6,0.1,0.7,0.4,1,0.5h-0.2
		c1.2,0.1,1.5,0.2,2.5,0.2c0.5-0.1,0.5-0.4,1.3-0.4c-0.3,0.2,0.1,0.1,0.4,0.1c-0.2,0-0.2,0.1,0.2,0.2c0.1-0.1,0.1-0.1,0.2-0.1l0,0
		c0.5-0.1,0.4-0.2,0.2-0.1c0,0,0,0-0.1-0.1c0.5,0.1,1.4-0.2,1.5,0c1.2-0.4,2.4-0.9,3.4-1.6c0.2,0.1,0,0.3-0.3,0.5l0.8-0.4
		c0.1,0.2-0.4,0.3-0.6,0.5c1.1-0.2,1.8-1.2,2.9-1.7l0.1-0.3h0.1c0-0.1,0.1-0.3,0.2-0.4s0.2,0.3,0.7-0.1c0.3-0.2,0.5-0.4,0.7-0.6
		c0.2-0.3,0.4-0.7,0.6-0.9c-0.3,0.2-0.3,0.1-0.2-0.1c0.2-0.2,0.5-0.2,0.5-0.5l0.2,0.1c-0.2,0,0.3-0.8,0.3-0.9c0.2,0-0.2,0.5-0.1,0.6
		c0.4-0.5,0.7-1,1-1.5c0.2-0.6-0.3,0-0.3-0.4c0.2-0.6,0.5-1.1,0.8-1.6l-0.3,0.1c0.1-0.8,0.4-1.5,0.8-2.2c0-0.2,0-0.5,0-0.7
		s0-0.4-0.1-0.6c0-0.3-0.1-0.7-0.1-1c-0.1-0.4-0.2-0.8-0.4-1.2c-0.3-0.5-0.5-0.5-0.7-0.2s-0.4,0.7-0.5,1.1c0,0.2-0.1,0.3-0.1,0.5
		l-0.1,0.2c-0.4,1.2-0.7,2.1-0.9,3.1C336.3,751.3,335.8,752.4,335.1,753.3z"/>
</g>
<g>
	<path class="st7" d="M787.5,757.2l-0.3,0.1C787.2,757.3,787.3,757.3,787.5,757.2z"/>
	<path class="st7" d="M787.5,753.3l-0.7,0.7c-0.2,0.2-0.4,0.3-0.6,0.5c-0.4,0.3-0.7,0.5-1.1,0.7c-0.8,0.4-1.5,0.8-2.7,1.4
		c-1.2,0.5-2.5,0.8-3.9,0.9c-0.2,0.1-0.3,0.1-0.5,0.2c-0.2,0-0.4,0-0.6,0h-0.7c-0.2,0-0.4,0-0.6,0l-0.3-0.2
		c-0.3,0.1-0.6,0.1-0.8-0.1l0,0c-0.3,0-0.7-0.1-1-0.1l0,0l-0.4-0.1h0.1c-0.6-0.1-1.3-0.3-1.8-0.7v0.2c-1-0.9-1.7-0.8-2.4-1.8l0,0
		c-0.6-0.2-1.1-0.7-1.4-1.3c-0.3-0.6-0.7-1.1-1.2-1.6c0.2,0.1,0-0.1,0.1-0.1l-0.3-0.4c-0.1-0.1-0.2-0.3-0.3-0.4
		c-0.2-0.2-0.4-0.3-0.6-0.3c-0.2-0.5,0-0.5,0.1-0.6c-0.2,0.1-0.4-0.3-0.5-0.7l0.1,0.2l-0.1-0.2c-0.1-0.1-0.1-0.2-0.2-0.4
		c-0.1-0.3-0.2-0.6-0.2-0.6l-0.3,0.3c-0.1-0.7,0.4-0.3,0.1-0.8l-0.3,0.1c0-0.8,0.2-1.6,0.5-2.3c0-1.7,0.2-3.5,0.7-5.1
		s1.4-3.1,2.8-4.2h0.3c0.3,0.2,0.3-0.9,0.6-0.8l0.2-0.4c0.1,0,0.3-0.1,0.2,0.1c0.3-0.2,0.3-0.2,0.4-0.5l0.4-0.1
		c1.2-0.6,2-1.4,3.4-1.8c0.9,0,2-0.3,3.3-0.4l0.5-0.1h0.5h0.9c0.6,0,1.2,0,1.6,0.1c1.4,0.1,2.7,0.7,3.8,1.7c1.1,0.9,2,1.9,3.1,2.8
		c0,0.1,0.2,0.2,0.3,0.2l0.2,0.3c0.2,0.2,0.3,0.5,0.5,0.7l0.4,0.7c0.1,0.1,0.1,0.2,0.2,0.3l0.2,0.4l0.2,0.5c0.1,0.2,0.2,0.4,0.2,0.6
		c0.4,1,0.7,2,1,3c0.2,0.9,0.5,1.6,0.8,1.4c0.2-0.1,0.4-0.4,0.6-1l0.2-0.5c0-0.2,0.1-0.4,0.1-0.7s0.1-0.5,0.1-0.8s0-0.6,0-1h0.1
		c-0.1-1.3-0.6-2.5-1.5-3.4c0.3-0.3-0.6-1.2-0.7-1.5l0,0c-0.4-0.3-0.7-0.7-0.9-1.2c-0.2-0.4-0.6-0.8-1-1.1c0.1,0,0.2,0,0.3,0.1
		c-0.5-0.5-1.3-1-1.2-1.2l-1.1-0.8c-0.4-0.3-0.8-0.5-1.2-0.7c-0.7-0.4-1.4-0.6-2.2-0.7h0.1c-0.7,0.1-0.7-0.3-1.4-0.3
		c0,0-0.1-0.1,0-0.1c-0.4,0-0.8,0-1.3-0.2c-0.4-0.1-0.8-0.1-1.1-0.2v0.1h-1.3l0.5,0.1c-0.1,0.2-0.3,0.1-0.7,0s-0.8-0.1-1.2,0
		c-0.5,0.1-0.9,0.3-1.3,0.6c-0.2,0.1-0.4,0.3-0.6,0.4c-0.2,0.1-0.4,0.2-0.6,0.2c-0.3,0.3,0.3-0.4-0.3-0.1c-0.1-0.2,0.3-0.2,0-0.4
		c-0.6,0.3-1.1,0-1.7,0.5l-0.1-0.2c-0.8,0.7-1.9,0.6-2.3,1.2c-0.8,0.7-0.9-0.1-1.6,0.9l-0.5,0.1c-0.4,0.3,0,0.5-0.5,0.7
		c-0.1-0.1-0.6,0.4-0.5,0c-0.5,0.4-0.9,0.9-1.3,1.4c-0.4,0.6-0.8,1.2-1.3,1.7c0,0.3-0.1,0.5-0.2,0.7c-0.1,0.2-0.2,0.4-0.2,0.7
		c-0.1,0-0.3,0.3-0.4,0.6s-0.2,0.4-0.2-0.1c0-0.1,0.1-0.2,0.1-0.2l-0.1-0.2c-0.3,0.3-0.5,0.7-0.5,1.2c-0.1,0.4-0.1,0.9-0.2,1.3
		c0.1-0.3,0.2-0.6,0.3-0.3l-0.2,0.8l-0.1-0.2l-0.2,0.6c-0.1,0.3-0.2,0.6-0.2,0.6l0.2-0.1c-0.2,0.6-0.6,0.8-0.3,1.5
		c0.1,0.3,0.3-0.5,0.3,0.1c-0.1,0.4-0.2,0.9-0.3,1.4c0,0.5,0,1.1,0,1.6c0.2-0.1,0.2,0.2,0.3,0.4l-0.2,0.1c0.4,1-0.4,0.5,0.1,1.5
		l-0.2-0.1l0.5,0.2c0.6,0.9-0.2,0.7,0.6,1.5c-0.2-0.4,0.3-0.3,0.4,0.2l-0.2-0.1c0.1,0.2,0.2,0.3,0.3,0.5c-0.2-0.1-0.3,0-0.1,0.4
		l-0.3-0.2l0.7,0.6c0.1,0.7,0.9,1.4,0.8,1.7c0,0.1,0.1,0.1,0.1,0.2c0.1,0.1,0.2,0.3,0.3,0.4s0.5,0.6,0.7,0.7
		c-0.3-0.1,0.1,0.5-0.2,0.5c0.6,0.3,1,0.7,1.4,1.2H767c0.2,0.3,0.5,0.5,0.8,0.8c0.3,0.2,0.6,0.4,0.8,0.5c0.6,0.3,1.2,0.6,1.7,1
		c0-0.2,0.7,0.2,0.6-0.1c0.3,0.1,0.6,0.2,0.9,0.4c0.3,0.1,0.5,0.3,0.8,0.4c0.5,0.3,0.9,0.3,1.3,0c0.6,0.1,0.7,0.4,1,0.5h-0.2
		c1.2,0.1,1.5,0.2,2.4,0.2c0.5-0.1,0.5-0.4,1.3-0.4c-0.3,0.2,0.1,0.1,0.4,0.1c-0.2,0-0.3,0.1,0.2,0.2c0.1-0.1,0.1-0.1,0.2-0.1l0,0
		c0.5-0.1,0.4-0.2,0.2-0.1c0,0,0,0-0.1-0.1c0.5,0.1,1.4-0.2,1.5,0c1.2-0.4,2.4-0.9,3.4-1.6c0.2,0.1,0,0.3-0.3,0.5l0.8-0.4
		c0.1,0.2-0.4,0.3-0.6,0.5c1.1-0.2,1.8-1.2,2.9-1.7l0.1-0.3h0.1c-0.1-0.1,0.1-0.3,0.2-0.4s0.3,0.3,0.7-0.1c0.3-0.2,0.5-0.4,0.7-0.6
		c0.2-0.3,0.4-0.7,0.6-0.9c-0.3,0.2-0.3,0.1-0.2-0.1s0.5-0.2,0.5-0.5l0.2,0.1c-0.2,0,0.3-0.8,0.3-0.9c0.3,0-0.2,0.5-0.1,0.6
		c0.4-0.5,0.7-1,1-1.5c0.2-0.6-0.3,0-0.3-0.4c0.2-0.6,0.4-1.1,0.7-1.6l-0.3,0.1c0.1-0.8,0.4-1.5,0.8-2.2c0-0.2,0-0.5,0-0.7
		s0-0.4,0-0.6c0-0.4-0.1-0.7-0.1-1c-0.1-0.4-0.2-0.8-0.4-1.2c-0.3-0.5-0.5-0.5-0.7-0.2s-0.4,0.7-0.5,1.1c0,0.2-0.1,0.3-0.1,0.5
		l-0.1,0.2c-0.4,1.2-0.7,2.1-0.9,3.1C788.8,751.2,788.2,752.3,787.5,753.3z"/>
</g>
<g>
	<path class="st7" d="M1163.8,363.1l-0.3,0.1C1163.6,363.1,1163.7,363.2,1163.8,363.1z"/>
	<path class="st7" d="M1163.9,359.2l-0.7,0.7c-0.2,0.2-0.4,0.3-0.6,0.5c-0.4,0.3-0.7,0.5-1.1,0.7c-0.8,0.4-1.5,0.8-2.7,1.4
		c-1.2,0.5-2.5,0.8-3.9,0.9c-0.2,0.1-0.4,0.1-0.5,0.2c-0.2,0-0.4,0-0.6,0h-0.7c-0.2,0-0.4,0-0.6,0l-0.3-0.2c-0.3,0.1-0.6,0-0.8-0.1
		l0,0c-0.3,0-0.7-0.1-1-0.1l0,0l-0.4-0.1h0.1c-0.6-0.1-1.3-0.3-1.8-0.7l-0.1,0.2c-1-0.9-1.7-0.8-2.4-1.8l0,0
		c-0.6-0.2-1.1-0.7-1.4-1.3c-0.3-0.6-0.7-1.1-1.2-1.6c0.2,0.1,0.1-0.1,0.1-0.1l-0.3-0.4c-0.1-0.1-0.2-0.3-0.3-0.4
		c-0.2-0.2-0.4-0.4-0.6-0.3c-0.2-0.5,0-0.5,0.1-0.6c-0.2,0.1-0.4-0.3-0.6-0.7l0.1,0.2l-0.1-0.2c-0.1-0.1-0.1-0.3-0.1-0.4l-0.2-0.6
		l-0.3,0.3c-0.1-0.6,0.4-0.3,0.1-0.8l-0.3,0.1c0-0.8,0.2-1.6,0.5-2.3c0-1.7,0.2-3.5,0.7-5.1s1.4-3.1,2.8-4.2h0.3
		c0.2,0.2,0.3-0.9,0.6-0.8l0.2-0.4c0.1,0,0.3-0.1,0.2,0.1c0.3-0.2,0.3-0.2,0.4-0.5l0.4-0.1c1.2-0.6,2-1.5,3.4-1.8
		c0.9,0,2-0.3,3.3-0.4l0.5-0.1h0.5h0.9c0.6,0,1.2,0,1.6,0.1c1.4,0.1,2.7,0.7,3.8,1.7c1.1,0.9,2,1.9,3.1,2.8c0,0.1,0.2,0.2,0.3,0.2
		l0.2,0.3c0.2,0.2,0.3,0.4,0.5,0.7l0.4,0.7c0.1,0.1,0.1,0.2,0.2,0.3l0.2,0.4l0.2,0.5l0.3,0.6c0.4,1,0.7,2,1,3
		c0.2,0.9,0.5,1.6,0.8,1.4c0.2-0.1,0.4-0.4,0.6-1c0-0.1,0.1-0.3,0.2-0.5s0.1-0.4,0.1-0.6l0.1-0.8c0-0.3,0-0.6,0-1h0.1
		c-0.1-1.3-0.6-2.5-1.5-3.4c0.3-0.4-0.6-1.1-0.7-1.5l0,0c-0.4-0.3-0.7-0.7-0.9-1.2c-0.2-0.4-0.6-0.8-1-1.1c0.1,0,0.2,0,0.3,0.1
		c-0.5-0.5-1.3-1-1.2-1.2l-1.1-0.8c-0.4-0.3-0.8-0.5-1.2-0.7c-0.7-0.4-1.4-0.6-2.2-0.7h0.1c-0.7,0.1-0.7-0.3-1.4-0.3l-0.1-0.1
		c-0.4,0-0.8,0-1.2-0.1c-0.4-0.1-0.8-0.1-1.1-0.2v-0.2h-1.3l0.5,0.1c-0.1,0.2-0.3,0.1-0.7,0c-0.4-0.1-0.8-0.1-1.2,0
		c-0.5,0-0.9,0.2-1.2,0.6c-0.2,0.1-0.4,0.3-0.6,0.4s-0.4,0.2-0.6,0.2c-0.3,0.3,0.3-0.4-0.3-0.1c-0.1-0.2,0.2-0.2,0-0.4
		c-0.6,0.3-1.1,0-1.7,0.5l-0.1-0.2c-0.8,0.7-1.9,0.6-2.3,1.2c-0.8,0.7-0.9-0.1-1.6,0.9l-0.5,0.1c-0.4,0.3,0,0.5-0.5,0.7
		c-0.1-0.1-0.6,0.4-0.5,0c-0.5,0.4-0.9,0.9-1.3,1.4c-0.4,0.6-0.8,1.2-1.3,1.7c0,0.3-0.1,0.5-0.2,0.7s-0.2,0.4-0.2,0.7
		c-0.1,0-0.2,0.3-0.4,0.6s-0.2,0.4-0.2-0.1c0-0.1,0.1-0.2,0.1-0.2l-0.1-0.2c-0.3,0.3-0.5,0.7-0.5,1.2c0,0.4-0.1,0.9-0.2,1.3
		c0.1-0.3,0.2-0.6,0.3-0.3l-0.2,0.8l-0.1-0.2l-0.2,0.6c-0.1,0.3-0.2,0.6-0.2,0.6l0.2-0.1c-0.2,0.6-0.6,0.8-0.3,1.5
		c0.1,0.3,0.3-0.5,0.3,0.1c-0.1,0.5-0.2,1-0.3,1.4c-0.1,0.5-0.1,1.1-0.1,1.6c0.2-0.1,0.2,0.2,0.3,0.4l-0.2,0.1
		c0.4,1-0.4,0.5,0.1,1.5l-0.2-0.1l0.4,0.2c0.6,0.9-0.2,0.6,0.6,1.5c-0.2-0.4,0.3-0.3,0.4,0.2l-0.2-0.1c0.1,0.2,0.2,0.3,0.3,0.5
		c-0.2-0.1-0.3,0-0.1,0.4l-0.3-0.2l0.7,0.6c0.1,0.7,0.9,1.4,0.8,1.8c0,0.1,0.1,0.1,0.1,0.2c0.1,0.1,0.2,0.3,0.3,0.4
		c0.2,0.3,0.5,0.6,0.7,0.6c-0.3-0.1,0.1,0.5-0.2,0.5c0.6,0.3,1,0.7,1.4,1.2h-0.1c0.2,0.3,0.5,0.5,0.8,0.8c0.3,0.2,0.6,0.4,0.8,0.5
		c0.6,0.3,1.2,0.7,1.7,1.1c0-0.2,0.7,0.2,0.6-0.1c0.3,0.1,0.6,0.2,0.9,0.4c0.3,0.1,0.6,0.3,0.8,0.4c0.5,0.3,0.9,0.4,1.3,0
		c0.6,0.1,0.7,0.4,1,0.5h-0.2c1.2,0.1,1.6,0.2,2.4,0.2c0.4-0.1,0.5-0.4,1.3-0.4c-0.3,0.2,0.1,0.1,0.4,0.1c-0.2,0-0.2,0.1,0.2,0.2
		c0.1-0.1,0.1-0.1,0.2-0.1l0,0c0.5-0.1,0.4-0.1,0.2-0.1c0,0,0-0.1-0.1-0.1c0.5,0.1,1.4-0.2,1.5,0c1.2-0.4,2.4-0.9,3.4-1.6
		c0.2,0.1,0,0.3-0.3,0.5l0.8-0.4c0.1,0.2-0.4,0.3-0.6,0.5c1.1-0.2,1.8-1.2,2.9-1.7l0.1-0.3h0.1c0-0.1,0.1-0.3,0.2-0.5
		c0.2,0,0.2,0.3,0.7-0.1c0.3-0.2,0.5-0.4,0.7-0.6c0.2-0.3,0.4-0.6,0.6-0.9c-0.3,0.2-0.3,0.1-0.2-0.1c0.2-0.2,0.4-0.2,0.5-0.5
		l0.2,0.1c-0.3,0,0.3-0.8,0.3-0.9c0.2,0-0.2,0.5-0.1,0.6c0.4-0.5,0.7-1,1-1.5c0.2-0.6-0.3,0-0.3-0.4c0.2-0.6,0.4-1.1,0.7-1.6
		l-0.3,0.1c0.2-0.8,0.4-1.5,0.8-2.2c0-0.2,0-0.5,0-0.7s0-0.4-0.1-0.6c0-0.3-0.1-0.7-0.1-1c-0.1-0.4-0.2-0.8-0.4-1.2
		c-0.3-0.5-0.5-0.5-0.7-0.2s-0.4,0.7-0.4,1c-0.1,0.2-0.1,0.4-0.2,0.5l-0.1,0.2c-0.4,1.2-0.7,2.1-0.9,3.1
		C1165.1,357.2,1164.6,358.3,1163.9,359.2z"/>
</g>
<g>
	<path class="st7" d="M1014.6,625.8l-0.3,0.1C1014.4,625.9,1014.5,625.9,1014.6,625.8z"/>
	<path class="st7" d="M1014.7,622l-0.7,0.7c-0.2,0.2-0.4,0.3-0.6,0.5c-0.4,0.3-0.7,0.5-1.1,0.7c-0.8,0.4-1.5,0.8-2.7,1.4
		c-1.2,0.5-2.5,0.8-3.9,0.9c-0.2,0.1-0.3,0.1-0.5,0.2c-0.2,0-0.4,0-0.6,0h-0.7c-0.2,0-0.4,0-0.6,0l-0.3-0.2c-0.3,0.1-0.6,0-0.8-0.1
		l0,0c-0.3,0-0.7-0.1-1-0.1l0,0l-0.4-0.1h0.1c-0.6-0.1-1.3-0.3-1.8-0.7l-0.1,0.2c-1-0.9-1.7-0.8-2.4-1.8l0,0
		c-0.6-0.2-1.1-0.7-1.4-1.3c-0.3-0.6-0.7-1.1-1.2-1.6c0.2,0.1,0-0.1,0.1-0.1c-0.1-0.1-0.2-0.3-0.3-0.4c-0.1-0.1-0.2-0.3-0.3-0.4
		c-0.2-0.2-0.4-0.3-0.6-0.3c-0.2-0.5,0-0.4,0.1-0.6c-0.2,0.1-0.4-0.3-0.5-0.7l0.1,0.2l-0.1-0.2c-0.1-0.1-0.1-0.2-0.2-0.4l-0.2-0.6
		l-0.3,0.3c-0.1-0.7,0.4-0.3,0.1-0.8l-0.3,0.1c0-0.8,0.2-1.6,0.5-2.3c0-1.7,0.2-3.5,0.7-5.1s1.4-3.1,2.8-4.2h0.3
		c0.3,0.2,0.3-0.9,0.6-0.8l0.2-0.4c0.1,0,0.3-0.1,0.2,0.1c0.3-0.2,0.3-0.2,0.4-0.5l0.4-0.1c1.2-0.6,2-1.4,3.4-1.8
		c0.9,0,2-0.3,3.3-0.4l0.5-0.1h0.5h0.9c0.5,0,1.1,0,1.6,0.1c1.4,0.1,2.7,0.7,3.8,1.7c1.1,0.9,2,1.9,3.1,2.8c0,0.1,0.2,0.2,0.3,0.2
		l0.2,0.3c0.2,0.2,0.3,0.5,0.5,0.7c0.2,0.3,0.3,0.5,0.4,0.7c0.1,0.1,0.1,0.2,0.2,0.3l0.2,0.4l0.2,0.5c0.1,0.2,0.2,0.4,0.2,0.6
		c0.4,1,0.7,2,1,3c0.2,0.9,0.5,1.6,0.8,1.4c0.2-0.1,0.4-0.4,0.6-1c0.1-0.2,0.1-0.3,0.2-0.5c0-0.2,0.1-0.4,0.1-0.7s0.1-0.5,0.1-0.8
		s0-0.6,0-1h0.1c-0.1-1.3-0.6-2.5-1.5-3.4c0.3-0.3-0.6-1.2-0.7-1.5l0,0c-0.4-0.3-0.7-0.7-0.9-1.2c-0.2-0.4-0.6-0.8-1-1.1
		c0.1,0,0.2,0,0.3,0.1c-0.5-0.5-1.3-1-1.2-1.2l-1.1-0.8c-0.4-0.3-0.8-0.5-1.2-0.7c-0.7-0.4-1.4-0.6-2.2-0.7h0.1
		c-0.7,0.1-0.7-0.3-1.4-0.3c0,0-0.1-0.1,0-0.1c-0.4,0-0.8,0-1.3-0.2c-0.4-0.1-0.7-0.1-1.1-0.2v-0.2h-1.3l0.5,0.1
		c-0.1,0.2-0.3,0.1-0.7,0s-0.8-0.1-1.2,0c-0.5,0.1-0.9,0.3-1.2,0.6c-0.2,0.1-0.4,0.3-0.6,0.4c-0.2,0.1-0.4,0.2-0.6,0.2
		c-0.3,0.3,0.3-0.4-0.3-0.1c-0.1-0.2,0.3-0.2,0-0.4c-0.6,0.3-1.1,0-1.7,0.5l-0.1-0.2c-0.8,0.7-1.9,0.6-2.3,1.2
		c-0.8,0.7-0.9-0.1-1.6,0.9L995,602c-0.4,0.3,0,0.5-0.5,0.7c-0.1-0.1-0.6,0.4-0.5,0c-0.5,0.4-0.9,0.9-1.3,1.4
		c-0.4,0.6-0.8,1.2-1.3,1.7c0,0.3-0.1,0.5-0.2,0.7c-0.1,0.2-0.2,0.4-0.2,0.7c-0.1,0-0.2,0.3-0.4,0.6s-0.2,0.4-0.2-0.1
		c0-0.1,0.1-0.2,0.1-0.2l-0.1-0.2c-0.3,0.3-0.5,0.7-0.5,1.2c0,0.4-0.1,0.9-0.2,1.3c0.1-0.3,0.2-0.6,0.3-0.3l-0.2,0.8l-0.1-0.2
		l-0.2,0.6c-0.1,0.3-0.1,0.6-0.1,0.6l0.2-0.1c-0.2,0.6-0.6,0.8-0.3,1.5c0.1,0.3,0.3-0.5,0.3,0.1c-0.1,0.4-0.2,0.9-0.3,1.4
		s-0.1,1.1-0.1,1.6c0.2-0.1,0.2,0.2,0.3,0.4l-0.2,0.1c0.4,1-0.4,0.5,0.1,1.5l-0.2-0.1l0.5,0.2c0.6,0.9-0.2,0.7,0.6,1.5
		c-0.2-0.4,0.3-0.3,0.4,0.2l-0.2-0.1c0.1,0.2,0.2,0.3,0.3,0.5c-0.2-0.1-0.3,0-0.1,0.4l-0.3-0.2l0.7,0.6c0.1,0.7,0.9,1.4,0.8,1.7
		c0,0.1,0.1,0.1,0.1,0.2c0.1,0.1,0.2,0.3,0.3,0.4c0.2,0.3,0.5,0.6,0.7,0.7c-0.3-0.1,0.1,0.5-0.2,0.5c0.6,0.3,1.1,0.7,1.4,1.2h-0.1
		c0.2,0.3,0.5,0.5,0.8,0.8c0.3,0.2,0.6,0.4,0.8,0.5c0.6,0.3,1.2,0.6,1.7,1c0-0.2,0.7,0.2,0.6-0.1c0.3,0.1,0.6,0.2,0.9,0.4
		c0.3,0.1,0.5,0.3,0.8,0.4c0.5,0.3,0.9,0.4,1.3,0c0.6,0.1,0.7,0.4,1,0.5h-0.2c1.2,0.1,1.5,0.2,2.4,0.2c0.5-0.1,0.5-0.4,1.3-0.4
		c-0.2,0.2,0.1,0.1,0.4,0.1c-0.2,0-0.2,0.1,0.2,0.2c0.1,0,0.1-0.1,0.2-0.1l0,0c0.5-0.1,0.4-0.2,0.2-0.1c0,0,0-0.1-0.1-0.1
		c0.5,0.1,1.4-0.2,1.5,0c1.2-0.4,2.4-0.9,3.4-1.6c0.2,0.1,0,0.3-0.3,0.5l0.8-0.4c0.1,0.2-0.4,0.3-0.6,0.5c1.1-0.2,1.8-1.2,2.9-1.7
		l0.1-0.3h0.1c-0.1-0.1,0.1-0.3,0.2-0.4s0.2,0.3,0.7-0.1c0.3-0.2,0.5-0.4,0.7-0.6c0.2-0.3,0.4-0.7,0.6-0.9c-0.3,0.2-0.3,0.1-0.2-0.1
		s0.5-0.2,0.5-0.5l0.2,0.1c-0.3,0,0.3-0.8,0.3-0.9c0.3,0-0.2,0.5-0.1,0.6c0.4-0.5,0.7-1,1-1.5c0.2-0.6-0.3,0-0.3-0.4
		c0.2-0.6,0.4-1.1,0.7-1.6l-0.3,0.1c0.1-0.8,0.4-1.5,0.8-2.2c0-0.2,0-0.5,0-0.7s0-0.4,0-0.6c0-0.3-0.1-0.7-0.1-1
		c-0.1-0.4-0.2-0.8-0.4-1.2c-0.3-0.5-0.5-0.5-0.7-0.2s-0.4,0.6-0.5,1c0,0.2-0.1,0.3-0.1,0.5l-0.1,0.2c-0.4,1.2-0.7,2.1-0.9,3.1
		C1015.9,619.9,1015.4,621,1014.7,622z"/>
</g>
<text transform="matrix(1 0 0 1 551.7902 471.21)" class="st8 st9 st10 st11">W</text>
<text transform="matrix(1 0 0 1 571.6202 471.21)" class="st8 st9 st10">eb </text>
<text transform="matrix(1 0 0 1 601.7402 471.21)" class="st8 st9 st10">D</text>
<text transform="matrix(1 0 0 1 616.2002 471.21)" class="st8 st9 st10">esign &amp;</text>
<text transform="matrix(1 0 0 1 551.7902 498.41)" class="st8 st9 st10">D</text>
<text transform="matrix(1 0 0 1 566.2502 498.41)" class="st8 st9 st10">e</text>
<text transform="matrix(1 0 0 1 577.9202 498.41)" class="st8 st9 st10">v</text>
<text transform="matrix(1 0 0 1 589.7803 498.41)" class="st8 st9 st10">e</text>
<text transform="matrix(1 0 0 1 601.6702 498.41)" class="st8 st9 st10">l</text>
<text transform="matrix(1 0 0 1 607.6403 498.41)" class="st8 st9 st10">op</text>
<text transform="matrix(1 0 0 1 633.0002 498.41)" class="st8 st9 st10">m</text>
<text transform="matrix(1 0 0 1 652.9602 498.41)" class="st8 st9 st10">e</text>
<text transform="matrix(1 0 0 1 664.8604 498.41)" class="st8 st9 st10">n</text>
<text transform="matrix(1 0 0 1 676.9902 498.41)" class="st8 st9 st10">t</text>
<text transform="matrix(1 0 0 1 347.0301 601.53)" class="st8 st9 st10">C</text>
<text transform="matrix(1 0 0 1 358.95 601.53)" class="st8 st9 st10">or</text>
<text transform="matrix(1 0 0 1 381.3402 601.53)" class="st8 st9 st10">p</text>
<text transform="matrix(1 0 0 1 393.6701 601.53)" class="st8 st9 st10">orate</text>
<text transform="matrix(1 0 0 1 353.0901 628.73)" class="st8 st9 st10">Bra</text>
<text transform="matrix(1 0 0 1 388.0001 628.73)" class="st8 st9 st10">n</text>
<text transform="matrix(1 0 0 1 400.1201 628.73)" class="st8 st9 st10">ding</text>
<text transform="matrix(1 0 0 1 596.3002 738.65)" class="st8 st9 st10">L</text>
<text transform="matrix(1 0 0 1 607.9003 738.65)" class="st8 st9 st10">o</text>
<text transform="matrix(1 0 0 1 620.7102 738.65)" class="st8 st9 st10">g</text>
<text transform="matrix(1 0 0 1 632.7202 738.65)" class="st8 st9 st10">o</text>
<text transform="matrix(1 0 0 1 587.2102 765.85)" class="st8 st9 st10">D</text>
<text transform="matrix(1 0 0 1 601.6702 765.85)" class="st8 st9 st10">esign</text>
<text transform="matrix(1 0 0 1 821.2302 336.36)" class="st8 st9 st10">Video</text>
<text transform="matrix(1 0 0 1 798.49 363.56)" class="st8 st9 st10">Animation</text>
<text transform="matrix(1 0 0 1 1038.7998 476.88)" class="st8 st9 st10">Digital</text>
<text transform="matrix(1 0 0 1 1020.3801 504.08)" class="st8 st9 st10">Mar</text>
<text transform="matrix(1 0 0 1 1060.1599 504.08)" class="st8 st9 st10">k</text>
<text transform="matrix(1 0 0 1 1071.1499 504.08)" class="st8 st9 st10">eting</text>
<text transform="matrix(1 0 0 1 754.51 608.33)" class="st12 st9 st10">App </text>
<text transform="matrix(1 0 0 1 800.6101 608.33)" class="st12 st9 st10">D</text>
<text transform="matrix(1 0 0 1 815.0703 608.33)" class="st12 st9 st10">esigning &amp;</text>
<text transform="matrix(1 0 0 1 769.3301 635.53)" class="st12 st9 st10">D</text>
<text transform="matrix(1 0 0 1 783.79 635.53)" class="st12 st9 st10">e</text>
<text transform="matrix(1 0 0 1 795.4602 635.53)" class="st12 st9 st10">v</text>
<text transform="matrix(1 0 0 1 807.3203 635.53)" class="st12 st9 st10">e</text>
<text transform="matrix(1 0 0 1 819.2202 635.53)" class="st12 st9 st10">l</text>
<text transform="matrix(1 0 0 1 825.1799 635.53)" class="st12 st9 st10">op</text>
<text transform="matrix(1 0 0 1 850.5398 635.53)" class="st12 st9 st10">m</text>
<text transform="matrix(1 0 0 1 870.5 635.53)" class="st12 st9 st10">e</text>
<text transform="matrix(1 0 0 1 882.3999 635.53)" class="st12 st9 st10">n</text>
<text transform="matrix(1 0 0 1 894.53 635.53)" class="st12 st9 st10">t</text>
<path class="st13" d="M673.4,609.7H673h2C674.5,609.6,673.9,609.6,673.4,609.7z"/>
<path class="st13" d="M925.7,215.2l0.2,0.1l0,0L925.7,215.2z"/>
<path class="st13" d="M474.9,473.3c0.9-1.6,1.8-3.3,2.6-4.9C476.2,470.5,474.8,472.9,474.9,473.3z"/>
<linearGradient id="SVGID_00000024712624769848413790000004547786121200020638_" gradientUnits="userSpaceOnUse" x1="1041.84" y1="419" x2="1043.7799" y2="419" gradientTransform="matrix(1 0 0 1 0 196)">
	<stop  offset="0" style="stop-color:#6610A3"/>
	<stop  offset="0.35" style="stop-color:#451498"/>
	<stop  offset="1" style="stop-color:#001B80"/>
</linearGradient>
<path style="fill:url(#SVGID_00000024712624769848413790000004547786121200020638_);" d="M1041.8,614.9c0,0.1,0.5,0.2,1.9,0.2
	L1041.8,614.9z"/>
<linearGradient id="SVGID_00000132060324332529995970000009877943253931867583_" gradientUnits="userSpaceOnUse" x1="987.34" y1="387.45" x2="987.69" y2="387.45" gradientTransform="matrix(1 0 0 1 0 196)">
	<stop  offset="0" style="stop-color:#6610A3"/>
	<stop  offset="0.35" style="stop-color:#451498"/>
	<stop  offset="1" style="stop-color:#001B80"/>
</linearGradient>
<path style="fill:url(#SVGID_00000132060324332529995970000009877943253931867583_);" d="M987.3,583.2L987.3,583.2l0.3,0.5
	L987.3,583.2z"/>
<linearGradient id="SVGID_00000083791514470209724400000014915108904812519598_" gradientUnits="userSpaceOnUse" x1="92.88" y1="19.15" x2="1227.13" y2="19.15" gradientTransform="matrix(1 0 0 1 0 196)">
	<stop  offset="0" style="stop-color:#6610A3"/>
	<stop  offset="0.35" style="stop-color:#451498"/>
	<stop  offset="1" style="stop-color:#001B80"/>
</linearGradient>
<path style="fill:url(#SVGID_00000083791514470209724400000014915108904812519598_);" d="M925.5,215.1c0.1,0,0.1,0.1,0.2,0.1
	L925.5,215.1L925.5,215.1z"/>
<linearGradient id="SVGID_00000012441951023371701830000010950304367260203160_" gradientUnits="userSpaceOnUse" x1="944.33" y1="243.15" x2="944.48" y2="243.15" gradientTransform="matrix(1 0 0 1 0 196)">
	<stop  offset="0" style="stop-color:#6610A3"/>
	<stop  offset="0.35" style="stop-color:#451498"/>
	<stop  offset="1" style="stop-color:#001B80"/>
</linearGradient>
<polygon style="fill:url(#SVGID_00000012441951023371701830000010950304367260203160_);" points="944.3,439.5 944.3,439.5 
	944.3,439.5 944.3,439.5 944.5,438.8 "/>
<linearGradient id="SVGID_00000044146525579428621420000002561020191727358101_" gradientUnits="userSpaceOnUse" x1="1070.9301" y1="419.05" x2="1071.01" y2="419.05" gradientTransform="matrix(1 0 0 1 0 196)">
	<stop  offset="0" style="stop-color:#6610A3"/>
	<stop  offset="0.35" style="stop-color:#451498"/>
	<stop  offset="1" style="stop-color:#001B80"/>
</linearGradient>
<path style="fill:url(#SVGID_00000044146525579428621420000002561020191727358101_);" d="M1071,615.1L1071,615.1
	C1071,615,1070.9,615.1,1071,615.1z"/>
<linearGradient id="SVGID_00000120548464639758336930000000207831173221712289_" gradientUnits="userSpaceOnUse" x1="947.46" y1="254.75" x2="947.7" y2="254.75" gradientTransform="matrix(1 0 0 1 0 196)">
	<stop  offset="0" style="stop-color:#6610A3"/>
	<stop  offset="0.35" style="stop-color:#451498"/>
	<stop  offset="1" style="stop-color:#001B80"/>
</linearGradient>
<path style="fill:url(#SVGID_00000120548464639758336930000000207831173221712289_);" d="M947.7,450.5l-0.2,0.5
	C947.6,450.8,947.6,450.7,947.7,450.5z"/>
<linearGradient id="SVGID_00000147911102330939747390000007294966403257712569_" gradientUnits="userSpaceOnUse" x1="737" y1="96.6" x2="737.33" y2="96.6" gradientTransform="matrix(1 0 0 1 0 196)">
	<stop  offset="0" style="stop-color:#6610A3"/>
	<stop  offset="0.35" style="stop-color:#451498"/>
	<stop  offset="1" style="stop-color:#001B80"/>
</linearGradient>
<path style="fill:url(#SVGID_00000147911102330939747390000007294966403257712569_);" d="M737.3,292.3l-0.1,0.1l-0.3,0.5
	L737.3,292.3z"/>
<linearGradient id="SVGID_00000155850607270502093250000003717146209098052508_" gradientUnits="userSpaceOnUse" x1="891.76" y1="18.9" x2="892.65" y2="18.9" gradientTransform="matrix(1 0 0 1 0 196)">
	<stop  offset="0" style="stop-color:#6610A3"/>
	<stop  offset="0.35" style="stop-color:#451498"/>
	<stop  offset="1" style="stop-color:#001B80"/>
</linearGradient>
<polygon style="fill:url(#SVGID_00000155850607270502093250000003717146209098052508_);" points="891.8,215 891.8,215 892.7,214.8 
	"/>
<linearGradient id="SVGID_00000111910874448554350580000002798939330616612527_" gradientUnits="userSpaceOnUse" x1="254.35" y1="435.85" x2="255.38" y2="435.85" gradientTransform="matrix(1 0 0 1 0 196)">
	<stop  offset="0" style="stop-color:#6610A3"/>
	<stop  offset="0.35" style="stop-color:#451498"/>
	<stop  offset="1" style="stop-color:#001B80"/>
</linearGradient>
<path style="fill:url(#SVGID_00000111910874448554350580000002798939330616612527_);" d="M255.4,632.9l-1-2.1
	C254.6,631.6,254.9,632.3,255.4,632.9z"/>
<linearGradient id="SVGID_00000012439649164083787550000005539040201193223868_" gradientUnits="userSpaceOnUse" x1="283.62" y1="359.3" x2="283.95" y2="359.3" gradientTransform="matrix(1 0 0 1 0 196)">
	<stop  offset="0" style="stop-color:#6610A3"/>
	<stop  offset="0.35" style="stop-color:#451498"/>
	<stop  offset="1" style="stop-color:#001B80"/>
</linearGradient>
<path style="fill:url(#SVGID_00000012439649164083787550000005539040201193223868_);" d="M284,555L284,555l-0.3,0.6L284,555z"/>
<linearGradient id="SVGID_00000058558547818888152870000009748667075768580747_" gradientUnits="userSpaceOnUse" x1="271.63" y1="465.2293" x2="271.71" y2="465.2293" gradientTransform="matrix(1 0 0 1 0 196)">
	<stop  offset="0" style="stop-color:#6610A3"/>
	<stop  offset="0.35" style="stop-color:#451498"/>
	<stop  offset="1" style="stop-color:#001B80"/>
</linearGradient>
<path style="fill:url(#SVGID_00000058558547818888152870000009748667075768580747_);" d="M271.6,661.3l0.1-0.1
	C271.6,661.1,271.6,661.2,271.6,661.3z"/>
<linearGradient id="SVGID_00000109025771366141385190000002090161609215657132_" gradientUnits="userSpaceOnUse" x1="438.38" y1="281.65" x2="439.27" y2="281.65" gradientTransform="matrix(1 0 0 1 0 196)">
	<stop  offset="0" style="stop-color:#6610A3"/>
	<stop  offset="0.35" style="stop-color:#451498"/>
	<stop  offset="1" style="stop-color:#001B80"/>
</linearGradient>
<polygon style="fill:url(#SVGID_00000109025771366141385190000002090161609215657132_);" points="438.4,477.8 438.4,477.8 
	439.3,477.5 "/>
<linearGradient id="SVGID_00000013904062668091434240000015961643347610464150_" gradientUnits="userSpaceOnUse" x1="114.84" y1="416.6784" x2="115.23" y2="416.6784" gradientTransform="matrix(1 0 0 1 0 196)">
	<stop  offset="0" style="stop-color:#6610A3"/>
	<stop  offset="0.35" style="stop-color:#451498"/>
	<stop  offset="1" style="stop-color:#001B80"/>
</linearGradient>
<path style="fill:url(#SVGID_00000013904062668091434240000015961643347610464150_);" d="M114.8,612.6l0.4,0.2
	C115.2,612.7,115.1,612.6,114.8,612.6z"/>
<linearGradient id="SVGID_00000029041441823333327080000016803405023078698663_" gradientUnits="userSpaceOnUse" x1="163.15" y1="413.05" x2="163.3" y2="413.05" gradientTransform="matrix(1 0 0 1 0 196)">
	<stop  offset="0" style="stop-color:#6610A3"/>
	<stop  offset="0.35" style="stop-color:#451498"/>
	<stop  offset="1" style="stop-color:#001B80"/>
</linearGradient>
<polygon style="fill:url(#SVGID_00000029041441823333327080000016803405023078698663_);" points="163.1,609.2 163.1,609.2 
	163.3,608.9 "/>
<linearGradient id="SVGID_00000062874275776454429260000012796586340371542708_" gradientUnits="userSpaceOnUse" x1="971.77" y1="-50.85" x2="972.5" y2="-50.85" gradientTransform="matrix(1 0 0 1 0 196)">
	<stop  offset="0" style="stop-color:#6610A3"/>
	<stop  offset="0.35" style="stop-color:#451498"/>
	<stop  offset="1" style="stop-color:#001B80"/>
</linearGradient>
<path style="fill:url(#SVGID_00000062874275776454429260000012796586340371542708_);" d="M972.5,144.7l-0.7,0.9
	C971.8,145.6,972.1,145.4,972.5,144.7z"/>
<linearGradient id="SVGID_00000129885408460162988170000008370844433006799513_" gradientUnits="userSpaceOnUse" x1="744.77" y1="-25.8" x2="744.95" y2="-25.8" gradientTransform="matrix(1 0 0 1 0 196)">
	<stop  offset="0" style="stop-color:#6610A3"/>
	<stop  offset="0.35" style="stop-color:#451498"/>
	<stop  offset="1" style="stop-color:#001B80"/>
</linearGradient>
<path style="fill:url(#SVGID_00000129885408460162988170000008370844433006799513_);" d="M745,170.3c-0.1-0.1-0.1-0.2-0.2-0.2
	C744.9,170.1,744.9,170.2,745,170.3z"/>
<linearGradient id="SVGID_00000172406891974546278870000015017128997185309854_" gradientUnits="userSpaceOnUse" x1="868.66" y1="26.6" x2="869.11" y2="26.6" gradientTransform="matrix(1 0 0 1 0 196)">
	<stop  offset="0" style="stop-color:#6610A3"/>
	<stop  offset="0.35" style="stop-color:#451498"/>
	<stop  offset="1" style="stop-color:#001B80"/>
</linearGradient>
<polygon style="fill:url(#SVGID_00000172406891974546278870000015017128997185309854_);" points="869.1,222.5 869.1,222.5 
	868.7,222.7 "/>
<linearGradient id="SVGID_00000047738384689458900150000012221708076465905584_" gradientUnits="userSpaceOnUse" x1="720.29" y1="386.15" x2="720.53" y2="386.15" gradientTransform="matrix(1 0 0 1 0 196)">
	<stop  offset="0" style="stop-color:#6610A3"/>
	<stop  offset="0.35" style="stop-color:#451498"/>
	<stop  offset="1" style="stop-color:#001B80"/>
</linearGradient>
<path style="fill:url(#SVGID_00000047738384689458900150000012221708076465905584_);" d="M720.5,581.9l-0.2,0.5
	C720.4,582.2,720.5,582,720.5,581.9z"/>
<linearGradient id="SVGID_00000176034314746089436400000000948078960990270651_" gradientUnits="userSpaceOnUse" x1="509.83" y1="227.9" x2="510.16" y2="227.9" gradientTransform="matrix(1 0 0 1 0 196)">
	<stop  offset="0" style="stop-color:#6610A3"/>
	<stop  offset="0.35" style="stop-color:#451498"/>
	<stop  offset="1" style="stop-color:#001B80"/>
</linearGradient>
<path style="fill:url(#SVGID_00000176034314746089436400000000948078960990270651_);" d="M510.2,423.6l-0.1,0.1l-0.3,0.5
	L510.2,423.6z"/>
<linearGradient id="SVGID_00000153705254862196398040000010465533952717685930_" gradientUnits="userSpaceOnUse" x1="497.84" y1="333.85" x2="497.92" y2="333.85" gradientTransform="matrix(1 0 0 1 0 196)">
	<stop  offset="0" style="stop-color:#6610A3"/>
	<stop  offset="0.35" style="stop-color:#451498"/>
	<stop  offset="1" style="stop-color:#001B80"/>
</linearGradient>
<path style="fill:url(#SVGID_00000153705254862196398040000010465533952717685930_);" d="M497.9,529.9l0.1-0.1
	C497.9,529.8,497.8,529.8,497.9,529.9z"/>
<linearGradient id="SVGID_00000070117505698981181610000017194430876186825382_" gradientUnits="userSpaceOnUse" x1="664.59" y1="150.25" x2="665.48" y2="150.25" gradientTransform="matrix(1 0 0 1 0 196)">
	<stop  offset="0" style="stop-color:#6610A3"/>
	<stop  offset="0.35" style="stop-color:#451498"/>
	<stop  offset="1" style="stop-color:#001B80"/>
</linearGradient>
<polygon style="fill:url(#SVGID_00000070117505698981181610000017194430876186825382_);" points="664.6,346.4 664.6,346.4 
	665.5,346.1 "/>
<linearGradient id="SVGID_00000030463026319117503540000006208485191781618876_" gradientUnits="userSpaceOnUse" x1="291.39" y1="236.9" x2="291.57" y2="236.9" gradientTransform="matrix(1 0 0 1 0 196)">
	<stop  offset="0" style="stop-color:#6610A3"/>
	<stop  offset="0.35" style="stop-color:#451498"/>
	<stop  offset="1" style="stop-color:#001B80"/>
</linearGradient>
<path style="fill:url(#SVGID_00000030463026319117503540000006208485191781618876_);" d="M291.6,433c-0.1-0.1-0.1-0.2-0.2-0.2
	C291.5,432.9,291.5,433,291.6,433z"/>
<linearGradient id="SVGID_00000056390529313968018280000011763064067937736866_" gradientUnits="userSpaceOnUse" x1="491.35" y1="247.65" x2="491.5" y2="247.65" gradientTransform="matrix(1 0 0 1 0 196)">
	<stop  offset="0" style="stop-color:#6610A3"/>
	<stop  offset="0.35" style="stop-color:#451498"/>
	<stop  offset="1" style="stop-color:#001B80"/>
</linearGradient>
<path style="fill:url(#SVGID_00000056390529313968018280000011763064067937736866_);" d="M491.4,443.8L491.4,443.8l0.1-0.3
	L491.4,443.8z"/>
<linearGradient id="SVGID_00000034809403198813854250000000768265052851622074_" gradientUnits="userSpaceOnUse" x1="415.28" y1="289.35" x2="415.73" y2="289.35" gradientTransform="matrix(1 0 0 1 0 196)">
	<stop  offset="0" style="stop-color:#6610A3"/>
	<stop  offset="0.35" style="stop-color:#451498"/>
	<stop  offset="1" style="stop-color:#001B80"/>
</linearGradient>
<polygon style="fill:url(#SVGID_00000034809403198813854250000000768265052851622074_);" points="415.7,485.2 415.7,485.2 
	415.3,485.5 "/>
<linearGradient id="SVGID_00000057828964444208169580000006070191486951818660_" gradientUnits="userSpaceOnUse" x1="594.65" y1="413.05" x2="595.4" y2="413.05" gradientTransform="matrix(1 0 0 1 0 196)">
	<stop  offset="0" style="stop-color:#6610A3"/>
	<stop  offset="0.35" style="stop-color:#451498"/>
	<stop  offset="1" style="stop-color:#001B80"/>
</linearGradient>
<polygon style="fill:url(#SVGID_00000057828964444208169580000006070191486951818660_);" points="594.7,609.2 594.7,609.2 
	595.4,608.9 "/>
<path class="st13" d="M474.9,473.3c0.9-1.6,1.8-3.3,2.6-4.9C476.2,470.5,474.8,472.9,474.9,473.3z"/>
<path class="st13" d="M673.4,609.7H673h2C674.5,609.6,673.9,609.6,673.4,609.7z"/>
<path class="st13" d="M673.4,609.7H673h2C674.5,609.6,673.9,609.6,673.4,609.7z"/>
<path class="st13" d="M474.9,473.3c0.9-1.6,1.8-3.3,2.6-4.9C476.2,470.5,474.8,472.9,474.9,473.3z"/>
<path class="st13" d="M474.9,473.3c0.9-1.6,1.8-3.3,2.6-4.9C476.2,470.5,474.8,472.9,474.9,473.3z"/>
<path class="st13" d="M673.4,609.7H673h2C674.5,609.6,673.9,609.6,673.4,609.7z"/>
<line class="st13" x1="925.7" y1="222" x2="930.9" y2="219.2"/>
<path class="st13" d="M474.9,473.3c0.9-1.6,1.8-3.3,2.6-4.9C476.2,470.5,474.8,472.9,474.9,473.3z"/>
<path class="st13" d="M673.4,609.7H673h2C674.5,609.6,673.9,609.6,673.4,609.7z"/>
<path class="st13" d="M474.9,473.3c0.9-1.6,1.8-3.3,2.6-4.9C476.2,470.5,474.8,472.9,474.9,473.3z"/>
<path class="st13" d="M673.4,609.7H673h2C674.5,609.6,673.9,609.6,673.4,609.7z"/>
<path class="st13" d="M673.4,609.7H673h2C674.5,609.6,673.9,609.6,673.4,609.7z"/>
<path class="st13" d="M474.9,473.3c0.9-1.6,1.8-3.3,2.6-4.9C476.2,470.5,474.8,472.9,474.9,473.3z"/>
<path class="st13" d="M474.9,473.3c0.9-1.6,1.8-3.3,2.6-4.9C476.2,470.5,474.8,472.9,474.9,473.3z"/>
<path class="st13" d="M673.4,609.7H673h2C674.5,609.6,673.9,609.6,673.4,609.7z"/>
<path class="st13" d="M673.4,609.7H673h2C674.5,609.6,673.9,609.6,673.4,609.7z"/>
<path class="st13" d="M474.9,473.3c0.9-1.6,1.8-3.3,2.6-4.9C476.2,470.5,474.8,472.9,474.9,473.3z"/>
<path class="st13" d="M673.4,609.7H673h2C674.5,609.6,673.9,609.6,673.4,609.7z"/>
<path class="st13" d="M474.9,473.3c0.9-1.6,1.8-3.3,2.6-4.9C476.2,470.5,474.8,472.9,474.9,473.3z"/>
<path class="st13" d="M673.4,609.7H673h2C674.5,609.6,673.9,609.6,673.4,609.7z"/>
<path class="st13" d="M474.9,473.3c0.9-1.6,1.8-3.3,2.6-4.9C476.2,470.5,474.8,472.9,474.9,473.3z"/>
<path class="st13" d="M474.9,473.3c0.9-1.6,1.8-3.3,2.6-4.9C476.2,470.5,474.8,472.9,474.9,473.3z"/>
<path class="st13" d="M673.4,609.7H673h2C674.5,609.6,673.9,609.6,673.4,609.7z"/>
<path class="st13" d="M474.9,473.3c0.9-1.6,1.8-3.3,2.6-4.9C476.2,470.5,474.8,472.9,474.9,473.3z"/>
<path class="st13" d="M673.4,609.7H673h2C674.5,609.6,673.9,609.6,673.4,609.7z"/>
<path class="st13" d="M474.9,473.3c0.9-1.6,1.8-3.3,2.6-4.9C476.2,470.5,474.8,472.9,474.9,473.3z"/>
<path class="st13" d="M673.4,609.7H673h2C674.5,609.6,673.9,609.6,673.4,609.7z"/>
<path class="st13" d="M474.9,473.3c0.9-1.6,1.8-3.3,2.6-4.9C476.2,470.5,474.8,472.9,474.9,473.3z"/>
<path class="st13" d="M673.4,609.7H673h2C674.5,609.6,673.9,609.6,673.4,609.7z"/>
<path class="st13" d="M673.4,609.7H673h2C674.5,609.6,673.9,609.6,673.4,609.7z"/>
<path class="st13" d="M474.9,473.3c0.9-1.6,1.8-3.3,2.6-4.9C476.2,470.5,474.8,472.9,474.9,473.3z"/>
<path class="st13" d="M474.9,473.3c0.9-1.6,1.8-3.3,2.6-4.9C476.2,470.5,474.8,472.9,474.9,473.3z"/>
<path class="st13" d="M673.4,609.7H673h2C674.5,609.6,673.9,609.6,673.4,609.7z"/>
<path class="st13" d="M673.4,609.7H673h2C674.5,609.6,673.9,609.6,673.4,609.7z"/>
<path class="st13" d="M673.4,609.7H673h2C674.5,609.6,673.9,609.6,673.4,609.7z"/>
<path class="st13" d="M673.4,609.7H673h2C674.5,609.6,673.9,609.6,673.4,609.7z"/>
<g>
	
		<linearGradient id="SVGID_00000146499816729430898220000009908502488632968850_" gradientUnits="userSpaceOnUse" x1="698.6167" y1="153.2649" x2="778.2661" y2="153.2649">
		<stop  offset="0" style="stop-color:#6610A3"/>
		<stop  offset="0.35" style="stop-color:#451498"/>
		<stop  offset="1" style="stop-color:#001B80"/>
	</linearGradient>
	<polygon style="fill:url(#SVGID_00000146499816729430898220000009908502488632968850_);" points="774.8,220.8 698.6,87.7 
		702.1,85.7 778.3,218.8 	"/>
</g>
<g>
	
		<linearGradient id="SVGID_00000057141533368419020780000013861347802500468644_" gradientUnits="userSpaceOnUse" x1="924.0358" y1="285.1914" x2="1003.6852" y2="285.1914">
		<stop  offset="0" style="stop-color:#6610A3"/>
		<stop  offset="0.35" style="stop-color:#451498"/>
		<stop  offset="1" style="stop-color:#001B80"/>
	</linearGradient>
	<polygon style="fill:url(#SVGID_00000057141533368419020780000013861347802500468644_);" points="1000.2,352.7 924,219.6 
		927.5,217.6 1003.7,350.8 	"/>
</g>
<g>
	
		<linearGradient id="SVGID_00000181073352303944061240000013205917629154025115_" gradientUnits="userSpaceOnUse" x1="920.6608" y1="153.2649" x2="1000.3102" y2="153.2649" gradientTransform="matrix(-1 0 0 1 1923.7063 0)">
		<stop  offset="0" style="stop-color:#6610A3"/>
		<stop  offset="0.35" style="stop-color:#451498"/>
		<stop  offset="1" style="stop-color:#001B80"/>
	</linearGradient>
	<polygon style="fill:url(#SVGID_00000181073352303944061240000013205917629154025115_);" points="926.9,220.8 1003,87.7 
		999.6,85.7 923.4,218.8 	"/>
</g>
<g>
	
		<linearGradient id="SVGID_00000062161390503571507570000016301359584018947723_" gradientUnits="userSpaceOnUse" x1="698.9696" y1="118.5831" x2="778.619" y2="118.5831" gradientTransform="matrix(-1 7.843448e-03 -7.843448e-03 -1 1703.0621 661.9079)">
		<stop  offset="0" style="stop-color:#6610A3"/>
		<stop  offset="0.35" style="stop-color:#451498"/>
		<stop  offset="1" style="stop-color:#001B80"/>
	</linearGradient>
	<polygon style="fill:url(#SVGID_00000062161390503571507570000016301359584018947723_);" points="926.5,481.9 1003.7,614.4 
		1000.2,616.4 923,483.9 	"/>
</g>
<g>
	
		<linearGradient id="SVGID_00000057145763677549878230000000244114047849930649_" gradientUnits="userSpaceOnUse" x1="475.8528" y1="251.4109" x2="555.5022" y2="251.4109" gradientTransform="matrix(-1 0 0 -1 1702.1548 667.7062)">
		<stop  offset="0" style="stop-color:#6610A3"/>
		<stop  offset="0.35" style="stop-color:#451498"/>
		<stop  offset="1" style="stop-color:#001B80"/>
	</linearGradient>
	<polygon style="fill:url(#SVGID_00000057145763677549878230000000244114047849930649_);" points="1150.1,348.7 1226.3,481.9 
		1222.8,483.8 1146.7,350.7 	"/>
</g>
<g>
	<rect x="1002.1" y="348.7" class="st109" width="148.1" height="4"/>
</g>
<g>
	<rect x="1000.2" y="612.4" class="st109" width="149.9" height="4"/>
</g>
<g>
	
		<linearGradient id="SVGID_00000054234830677170926460000003972006616677304733_" gradientUnits="userSpaceOnUse" x1="1145.5873" y1="285.1031" x2="1225.2367" y2="285.1031" gradientTransform="matrix(-1 0 0 1 1923.7063 0)">
		<stop  offset="0" style="stop-color:#6610A3"/>
		<stop  offset="0.35" style="stop-color:#451498"/>
		<stop  offset="1" style="stop-color:#001B80"/>
	</linearGradient>
	<polygon style="fill:url(#SVGID_00000054234830677170926460000003972006616677304733_);" points="701.9,352.7 778.1,219.5 
		774.6,217.6 698.5,350.7 	"/>
</g>
<g>
	
		<linearGradient id="SVGID_00000075852793638889168120000015161116841429552271_" gradientUnits="userSpaceOnUse" x1="924.0358" y1="251.4655" x2="1003.6852" y2="251.4655" gradientTransform="matrix(-1 0 0 -1 1702.1548 667.7062)">
		<stop  offset="0" style="stop-color:#6610A3"/>
		<stop  offset="0.35" style="stop-color:#451498"/>
		<stop  offset="1" style="stop-color:#001B80"/>
	</linearGradient>
	<polygon style="fill:url(#SVGID_00000075852793638889168120000015161116841429552271_);" points="701.9,348.7 778.1,481.8 
		774.6,483.8 698.5,350.7 	"/>
</g>
<g>
	
		<linearGradient id="SVGID_00000070088842613863728610000011804118242927534015_" gradientUnits="userSpaceOnUse" x1="1145.5873" y1="251.3773" x2="1225.2367" y2="251.3773" gradientTransform="matrix(1 0 0 -1 -221.5515 667.7062)">
		<stop  offset="0" style="stop-color:#6610A3"/>
		<stop  offset="0.35" style="stop-color:#451498"/>
		<stop  offset="1" style="stop-color:#001B80"/>
	</linearGradient>
	<polygon style="fill:url(#SVGID_00000070088842613863728610000011804118242927534015_);" points="1000.2,348.8 924,481.9 
		927.5,483.9 1003.7,350.8 	"/>
</g>
<g>
	<rect x="777.2" y="217.1" class="st109" width="148.1" height="4"/>
</g>
<g>
	<rect x="777.2" y="481.8" class="st109" width="148.1" height="4"/>
</g>
<g>
	
		<linearGradient id="SVGID_00000007412105386179878870000004284001631627519113_" gradientUnits="userSpaceOnUse" x1="1371.824" y1="415.1695" x2="1452.0013" y2="415.1695" gradientTransform="matrix(-1 0 0 1 1923.7063 0)">
		<stop  offset="0" style="stop-color:#6610A3"/>
		<stop  offset="0.35" style="stop-color:#451498"/>
		<stop  offset="1" style="stop-color:#001B80"/>
	</linearGradient>
	<polygon style="fill:url(#SVGID_00000007412105386179878870000004284001631627519113_);" points="475.2,483 551.9,349.4 
		548.4,347.4 471.7,481 	"/>
</g>
<g>
	
		<linearGradient id="SVGID_00000016787322170931102760000016780158927632155058_" gradientUnits="userSpaceOnUse" x1="1150.8005" y1="121.1493" x2="1230.45" y2="121.1493" gradientTransform="matrix(-1 0 0 -1 1702.1548 667.7062)">
		<stop  offset="0" style="stop-color:#6610A3"/>
		<stop  offset="0.35" style="stop-color:#451498"/>
		<stop  offset="1" style="stop-color:#001B80"/>
	</linearGradient>
	<polygon style="fill:url(#SVGID_00000016787322170931102760000016780158927632155058_);" points="475.2,479 551.4,612.1 
		547.9,614.1 471.7,481 	"/>
</g>
<g>
	
		<linearGradient id="SVGID_00000167380998965002278020000013534136243791021980_" gradientUnits="userSpaceOnUse" x1="1378.83" y1="253.3552" x2="1458.4794" y2="253.3552" gradientTransform="matrix(-1 0 0 -1 1702.1548 667.7062)">
		<stop  offset="0" style="stop-color:#6610A3"/>
		<stop  offset="0.35" style="stop-color:#451498"/>
		<stop  offset="1" style="stop-color:#001B80"/>
	</linearGradient>
	<polygon style="fill:url(#SVGID_00000167380998965002278020000013534136243791021980_);" points="247.1,346.8 323.3,479.9 
		319.9,481.9 243.7,348.8 	"/>
</g>
<g>
	
		<linearGradient id="SVGID_00000111894976699157465230000009717904332137601962_" gradientUnits="userSpaceOnUse" x1="920.852" y1="119.3405" x2="1000.5014" y2="119.3405" gradientTransform="matrix(1 0 0 -1 -221.5515 667.7062)">
		<stop  offset="0" style="stop-color:#6610A3"/>
		<stop  offset="0.35" style="stop-color:#451498"/>
		<stop  offset="1" style="stop-color:#001B80"/>
	</linearGradient>
	<polygon style="fill:url(#SVGID_00000111894976699157465230000009717904332137601962_);" points="775.5,480.8 699.3,613.9 
		702.8,615.9 778.9,482.8 	"/>
</g>
<g>
	
		<linearGradient id="SVGID_00000091707536442458429930000006499637202412334015_" gradientUnits="userSpaceOnUse" x1="923.2849" y1="-11.9755" x2="1003.7587" y2="-11.9755" gradientTransform="matrix(-1 0 0 -1 1702.1548 667.7062)">
		<stop  offset="0" style="stop-color:#6610A3"/>
		<stop  offset="0.35" style="stop-color:#451498"/>
		<stop  offset="1" style="stop-color:#001B80"/>
	</linearGradient>
	<polygon style="fill:url(#SVGID_00000091707536442458429930000006499637202412334015_);" points="701.9,611.6 778.9,745.7 
		775.4,747.7 698.4,613.6 	"/>
</g>
<g>
	
		<linearGradient id="SVGID_00000170978824751171780260000005820729299709368247_" gradientUnits="userSpaceOnUse" x1="1371.9415" y1="678.2357" x2="1452.075" y2="678.2357" gradientTransform="matrix(-1 0 0 1 1923.7063 0)">
		<stop  offset="0" style="stop-color:#6610A3"/>
		<stop  offset="0.35" style="stop-color:#451498"/>
		<stop  offset="1" style="stop-color:#001B80"/>
	</linearGradient>
	<polygon style="fill:url(#SVGID_00000170978824751171780260000005820729299709368247_);" points="475.1,745.9 551.8,612.5 
		548.3,610.6 471.6,743.9 	"/>
</g>
<g>
	
		<linearGradient id="SVGID_00000126281948605006106860000010992814070343773869_" gradientUnits="userSpaceOnUse" x1="1150.874" y1="-141.7919" x2="1230.5234" y2="-141.7919" gradientTransform="matrix(-1 0 0 -1 1702.1548 667.7062)">
		<stop  offset="0" style="stop-color:#6610A3"/>
		<stop  offset="0.35" style="stop-color:#451498"/>
		<stop  offset="1" style="stop-color:#001B80"/>
	</linearGradient>
	<polygon style="fill:url(#SVGID_00000126281948605006106860000010992814070343773869_);" points="475.1,741.9 551.3,875.1 
		547.8,877.1 471.6,743.9 	"/>
</g>
<g>
	
		<linearGradient id="SVGID_00000150814717359447744180000011642177007493260672_" gradientUnits="userSpaceOnUse" x1="920.7784" y1="-143.6007" x2="1000.4279" y2="-143.6007" gradientTransform="matrix(1 0 0 -1 -221.5515 667.7062)">
		<stop  offset="0" style="stop-color:#6610A3"/>
		<stop  offset="0.35" style="stop-color:#451498"/>
		<stop  offset="1" style="stop-color:#001B80"/>
	</linearGradient>
	<polygon style="fill:url(#SVGID_00000150814717359447744180000011642177007493260672_);" points="775.4,743.8 699.2,876.9 
		702.7,878.9 778.9,745.7 	"/>
</g>
<g>
	<rect x="548.4" y="347.4" class="st109" width="152.2" height="4"/>
</g>
<g>
	<rect x="549.5" y="611.4" class="st109" width="151.5" height="4"/>
</g>
<g>
	
		<linearGradient id="SVGID_00000057149925794403233180000008935566827268355756_" gradientUnits="userSpaceOnUse" x1="1599.3092" y1="547.0224" x2="1679.4867" y2="547.0224" gradientTransform="matrix(-1 0 0 1 1923.7063 0)">
		<stop  offset="0" style="stop-color:#6610A3"/>
		<stop  offset="0.35" style="stop-color:#451498"/>
		<stop  offset="1" style="stop-color:#001B80"/>
	</linearGradient>
	<polygon style="fill:url(#SVGID_00000057149925794403233180000008935566827268355756_);" points="247.7,614.8 324.4,481.2 
		320.9,479.2 244.2,612.8 	"/>
</g>
<g>
	
		<linearGradient id="SVGID_00000055671809496819454200000003546195467536790930_" gradientUnits="userSpaceOnUse" x1="1378.2858" y1="-10.7036" x2="1457.9352" y2="-10.7036" gradientTransform="matrix(-1 0 0 -1 1702.1548 667.7062)">
		<stop  offset="0" style="stop-color:#6610A3"/>
		<stop  offset="0.35" style="stop-color:#451498"/>
		<stop  offset="1" style="stop-color:#001B80"/>
	</linearGradient>
	<polygon style="fill:url(#SVGID_00000055671809496819454200000003546195467536790930_);" points="247.7,610.9 323.9,744 320.4,746 
		244.2,612.8 	"/>
</g>
<g>
	<rect x="320.9" y="479.2" class="st109" width="152.2" height="4"/>
</g>
<g>
	<rect x="320.4" y="742" class="st109" width="153.1" height="4"/>
</g>
<g>
	<rect x="92.9" y="610.7" class="st109" width="153.1" height="4"/>
</g>
</svg>
